<svg xmlns="http://www.w3.org/2000/svg" width="234.131" height="74" viewBox="0 0 234.131 74">
  <g id="Grupo_9" data-name="Grupo 9" transform="translate(-65.503 -19.858)">
    <g id="Grupo_7" data-name="Grupo 7" transform="translate(66 20)">
      <g id="Grupo_5" data-name="Grupo 5" transform="translate(88.177)">
        <line id="Línea_1" data-name="Línea 1" x2="135.853" transform="translate(9.603 56.082)" fill="none" stroke="#1d1d1b" stroke-miterlimit="10" stroke-width="3"/>
        <g id="Grupo_1" data-name="Grupo 1">
          <path id="Trazado_1" data-name="Trazado 1" d="M323.4,30.583a2.658,2.658,0,0,0-1.289.108q-.644.215-1.343.43a4.133,4.133,0,0,1-1.4.188,2.3,2.3,0,0,1-1.4-.617q0-.268,1.047-.59a4.853,4.853,0,0,1,2.283-.108,2.3,2.3,0,0,0-1.531-.564,10.929,10.929,0,0,0-1.746.08,12.088,12.088,0,0,0-4.915,3.035,18.369,18.369,0,0,0-3.357,4.834,30.888,30.888,0,0,0-2.149,5.962,58.211,58.211,0,0,0-1.236,6.338q-.43,3.143-.645,6.043t-.376,5v12.14h-2.686V53.091q-.161-2.2-.4-5.049t-.7-5.936a58.243,58.243,0,0,0-1.262-6.177,28.834,28.834,0,0,0-2.148-5.748,18.43,18.43,0,0,0-3.331-4.673,11.735,11.735,0,0,0-4.78-2.928,11.016,11.016,0,0,0-1.746-.08,2.3,2.3,0,0,0-1.531.564,4.86,4.86,0,0,1,2.283.107q1.048.323,1.047.591a2.514,2.514,0,0,1-1.423.618,4.081,4.081,0,0,1-1.37-.188q-.7-.214-1.343-.43a2.647,2.647,0,0,0-1.289-.107,3.193,3.193,0,0,1,1.45-1.4,4.708,4.708,0,0,1,1.746-.4,5.3,5.3,0,0,1,1.692.215,8.449,8.449,0,0,1,1.342.51,11.187,11.187,0,0,1,4.862,2.632,16.6,16.6,0,0,1,3.384,4.512,28.184,28.184,0,0,1,2.2,5.748,57.539,57.539,0,0,1,1.315,6.338V35.257h2.686V49.116q.485-3.223,1.289-6.419a26.945,26.945,0,0,1,2.2-5.882,17.578,17.578,0,0,1,3.41-4.62,10.913,10.913,0,0,1,4.916-2.686A8.631,8.631,0,0,1,318.51,29a5.3,5.3,0,0,1,1.692-.215,4.716,4.716,0,0,1,1.746.4A3.2,3.2,0,0,1,323.4,30.583Zm-20.735-5.693h2.686v7.358h-2.686Z" transform="translate(-284.669 -21.852)" fill="#1d1d1b"/>
          <path id="Trazado_2" data-name="Trazado 2" d="M329.881,85.246,320.6,59.41h2.019l8.294,23.084,8.257-23.084h2.018L331.9,85.246Z" transform="translate(-296.52 -34.241)" fill="#1d1d1b"/>
          <path id="Trazado_3" data-name="Trazado 3" d="M375.713,74.844a12.807,12.807,0,0,1-1.614,4.221,13.441,13.441,0,0,1-2.882,3.376,13.107,13.107,0,0,1-3.853,2.239,13.3,13.3,0,0,1-9.688-.22,13.174,13.174,0,0,1-7.027-7.028,13.254,13.254,0,0,1,0-10.239,13.013,13.013,0,0,1,2.825-4.184,13.665,13.665,0,0,1,4.2-2.826,13.06,13.06,0,0,1,10.24,0,13.148,13.148,0,0,1,4.183,2.863,13.834,13.834,0,0,1,2.826,4.239,12.837,12.837,0,0,1,1.045,5.138H351.455a10.778,10.778,0,0,0,.9,4.367,11.328,11.328,0,0,0,6.055,5.982,11.1,11.1,0,0,0,4.385.881,10.986,10.986,0,0,0,3.817-.661,11.349,11.349,0,0,0,3.266-1.853,11.654,11.654,0,0,0,2.5-2.808,11.224,11.224,0,0,0,1.467-3.486ZM362.794,60.972a11.014,11.014,0,0,0-4.018.734,11.493,11.493,0,0,0-7.212,8.882h22.423a11.407,11.407,0,0,0-1.321-3.78,11.609,11.609,0,0,0-2.478-3.065,11.292,11.292,0,0,0-3.376-2.037A11.021,11.021,0,0,0,362.794,60.972Z" transform="translate(-306.093 -34.151)" fill="#1d1d1b"/>
          <path id="Trazado_4" data-name="Trazado 4" d="M441.6,58.051h-15.56v10.79q0,1.615.036,2.66t.092,1.725a6.2,6.2,0,0,0,.165,1.082q.11.4.219.734a7.517,7.517,0,0,0,2.827,3.689,7.661,7.661,0,0,0,4.477,1.376,7.572,7.572,0,0,0,4.33-1.285,7.735,7.735,0,0,0,2.826-3.376,6.491,6.491,0,0,0,.367-1.193,14.589,14.589,0,0,0,.22-2.147h1.836a19.714,19.714,0,0,1-.2,2.294,7.757,7.757,0,0,1-.313,1.23,9.7,9.7,0,0,1-1.4,2.551,9.11,9.11,0,0,1-2.077,1.981,10.414,10.414,0,0,1-2.611,1.3,9.21,9.21,0,0,1-2.959.476,9.671,9.671,0,0,1-3.034-.476,9.923,9.923,0,0,1-2.648-1.322,9.242,9.242,0,0,1-2.1-2.055,9.129,9.129,0,0,1-1.378-2.716c-.074-.244-.147-.519-.222-.826a7.722,7.722,0,0,1-.165-1.156q-.056-.7-.091-1.743t-.038-2.661V49.17h1.836v7.047H441.6Z" transform="translate(-330.695 -30.863)" fill="#1d1d1b"/>
          <path id="Trazado_5" data-name="Trazado 5" d="M404.111,72.107a14.683,14.683,0,0,1-.22,2.147,6.548,6.548,0,0,1-.366,1.193,7.739,7.739,0,0,1-2.82,3.376,7.557,7.557,0,0,1-4.324,1.285h-.035a8.667,8.667,0,0,1-1.031-.073c-.1-.012-.194-.025-.289-.04a7.665,7.665,0,0,1-.94-.21c-.1-.028-.19-.066-.286-.1-.124-.042-.25-.079-.371-.128-.06-.024-.111-.062-.171-.086a7.737,7.737,0,0,1-.834-.424c-.142-.082-.287-.16-.423-.249-.037-.024-.076-.041-.112-.066-.182-.127-.34-.273-.507-.412-.129-.105-.271-.19-.394-.3l-.009-.023a7.35,7.35,0,0,1-1.336-1.718c.005.018.008.036.013.054a5.647,5.647,0,0,1-.332-.605,4.707,4.707,0,0,1-.242-.635c-.006-.015-.014-.029-.019-.044q-.111-.33-.22-.734a6.264,6.264,0,0,1-.166-1.082q-.055-.679-.092-1.725t-.036-2.66V58.051h15.56V56.217h-15.56V49.17h-1.835V63.556a31.2,31.2,0,0,0-.936-3.523,14.019,14.019,0,0,0-1.45-3.12,9.988,9.988,0,0,0-2.11-2.4,7.155,7.155,0,0,0-2.88-1.413q-.367-.146-.881-.293a3.92,3.92,0,0,0-1.082-.147,2.393,2.393,0,0,0-1.083.257,2.239,2.239,0,0,0-.881.844,2.161,2.161,0,0,1,.826.091q.423.129.863.257a2.706,2.706,0,0,0,.881.111,1.635,1.635,0,0,0,.917-.385c0-.1-.226-.214-.679-.349a3.388,3.388,0,0,0-1.45-.092,1.652,1.652,0,0,1,1.028-.348,7.363,7.363,0,0,1,1.173.054,7.617,7.617,0,0,1,3.6,2.459,14.738,14.738,0,0,1,2.257,3.928,22.982,22.982,0,0,1,1.266,4.623q.4,2.423.625,4.624v.257q0,1.615.037,2.661t.091,1.743a7.716,7.716,0,0,0,.165,1.156c.074.306.147.582.221.826a9.131,9.131,0,0,0,1.379,2.716,9.229,9.229,0,0,0,2.1,2.055,9.913,9.913,0,0,0,2.648,1.322,9.665,9.665,0,0,0,3.034.476,9.213,9.213,0,0,0,2.959-.476,10.414,10.414,0,0,0,2.611-1.3,9.124,9.124,0,0,0,2.077-1.981,9.7,9.7,0,0,0,1.4-2.551,7.754,7.754,0,0,0,.313-1.23,19.416,19.416,0,0,0,.2-2.294Z" transform="translate(-314.6 -30.863)" fill="#1d1d1b"/>
          <path id="Trazado_6" data-name="Trazado 6" d="M474.526,74.148c-.006.019-.011.039-.017.058-.084.257-.18.507-.281.755-.034.084-.07.168-.107.252a11.423,11.423,0,0,1-1.59,2.648c-.113.139-.239.261-.356.395l-.027.029a11.243,11.243,0,0,1-1.957,1.742c-.072.051-.144.1-.217.153q-.271.18-.554.345c-.184.109-.372.208-.562.307-.092.047-.178.1-.273.149l-.029.006c-.33.158-.667.306-1.016.434a10.783,10.783,0,0,1-2.914.623h.032a2.741,2.741,0,0,1-.458.037h-.478a11.1,11.1,0,0,1-4.385-.881,11.328,11.328,0,0,1-6.055-5.982,10.778,10.778,0,0,1-.9-4.367H476.9a12.837,12.837,0,0,0-1.045-5.138,13.835,13.835,0,0,0-2.826-4.239,13.144,13.144,0,0,0-4.184-2.863,12.708,12.708,0,0,0-5.111-1.045c-.037,0-.072,0-.109,0q-.569,0-1.125.055c-.161.015-.318.04-.478.06-.247.031-.493.066-.734.111-.17.031-.337.07-.5.109q-.356.081-.7.182-.228.066-.453.141c-.3.1-.6.21-.895.335-.056.023-.113.044-.169.068a13.85,13.85,0,0,0-3.177,1.928c-.06.05-.118.1-.177.153-.212.178-.418.365-.619.558q-.235.227-.459.466c-.079.083-.156.169-.233.254a13.163,13.163,0,0,0-2.933,5.5c-.009.031-.02.062-.028.093a39.091,39.091,0,0,0-.826-4.184,17.962,17.962,0,0,0-1.431-3.835,11.081,11.081,0,0,0-2.238-3.01,7.179,7.179,0,0,0-3.248-1.744q-.367-.146-.881-.293a3.927,3.927,0,0,0-1.082-.147,2.4,2.4,0,0,0-1.084.257,2.239,2.239,0,0,0-.881.844,2.164,2.164,0,0,1,.826.091q.422.129.862.257a2.708,2.708,0,0,0,.881.111,1.635,1.635,0,0,0,.917-.385c0-.1-.225-.214-.678-.349a3.391,3.391,0,0,0-1.45-.092,1.652,1.652,0,0,1,1.028-.348,7.359,7.359,0,0,1,1.173.054,7.975,7.975,0,0,1,3.615,2.5,14.112,14.112,0,0,1,2.256,3.926,23.732,23.732,0,0,1,1.248,4.642q.4,2.416.619,4.595c0,.016,0,.033.005.048v.22a12.876,12.876,0,0,0,1.027,5.12,13.177,13.177,0,0,0,7.029,7.028,13.257,13.257,0,0,0,9.67.22,13.115,13.115,0,0,0,3.853-2.239,13.454,13.454,0,0,0,2.882-3.376,12.821,12.821,0,0,0,1.614-4.221h-1.854C474.715,73.573,474.619,73.86,474.526,74.148Zm-20.711-8.912a11.454,11.454,0,0,1,5.891-5.1,11.009,11.009,0,0,1,4.018-.734h.019a11.023,11.023,0,0,1,4.018.734,11.272,11.272,0,0,1,3.376,2.037,11.609,11.609,0,0,1,2.478,3.065,11.378,11.378,0,0,1,1.321,3.78H452.494A11.422,11.422,0,0,1,453.815,65.235Z" transform="translate(-335.662 -32.579)" fill="#1d1d1b"/>
        </g>
        <g id="Grupo_4" data-name="Grupo 4" transform="translate(51.882 66.105)">
          <path id="Trazado_7" data-name="Trazado 7" d="M364.978,123.187a2.2,2.2,0,0,1,2.008,1.529l.025.053h.651l-.058-.131a2.979,2.979,0,0,0-1.053-1.274,2.73,2.73,0,0,0-1.574-.486,2.806,2.806,0,0,0-2.009.858,3.057,3.057,0,0,0-.006,4.287,2.8,2.8,0,0,0,2.015.858,2.725,2.725,0,0,0,1.574-.486,2.971,2.971,0,0,0,1.053-1.274l.058-.131h-.652l-.025.054a3.232,3.232,0,0,1-.822,1.151,1.912,1.912,0,0,1-2.722-.432,3.136,3.136,0,0,1-.605-1.884,3.068,3.068,0,0,1,.614-1.888A1.824,1.824,0,0,1,364.978,123.187Z" transform="translate(-362.088 -121.28)" fill="#1d1d1b"/>
          <path id="Trazado_8" data-name="Trazado 8" d="M374.253,122.878a2.747,2.747,0,0,0-2.042.881,3.078,3.078,0,0,0,0,4.243,2.809,2.809,0,0,0,4.085,0,3.078,3.078,0,0,0,0-4.243A2.747,2.747,0,0,0,374.253,122.878Zm-2.142,3a3,3,0,0,1,.633-1.917,1.858,1.858,0,0,1,1.509-.786,1.894,1.894,0,0,1,1.515.786,3.19,3.19,0,0,1,0,3.828,1.9,1.9,0,0,1-1.515.782,1.859,1.859,0,0,1-1.509-.781A2.977,2.977,0,0,1,372.111,125.88Z" transform="translate(-365.147 -121.28)" fill="#1d1d1b"/>
          <path id="Trazado_9" data-name="Trazado 9" d="M384.205,125.661h0a4.062,4.062,0,0,0-.627-.376,4.69,4.69,0,0,0-.584-.224c-.627-.19-.944-.445-.944-.758,0-.769.3-1.142.917-1.142a.94.94,0,0,1,.454.106.823.823,0,0,1,.285.237,1.358,1.358,0,0,1,.157.315,1.434,1.434,0,0,1,.072.247.916.916,0,0,1,.01.105v.075l.8.173V124.3a1.247,1.247,0,0,0-.549-1.05,2.038,2.038,0,0,0-1.228-.391,1.97,1.97,0,0,0-1.22.407,1.26,1.26,0,0,0-.548,1.034c0,.648.584,1.165,1.738,1.538.85.275,1.262.726,1.262,1.381a1.845,1.845,0,0,1-.029.321,1.443,1.443,0,0,1-.115.349,1.392,1.392,0,0,1-.216.335.916.916,0,0,1-.348.235,1.363,1.363,0,0,1-.525.1,1.02,1.02,0,0,1-.98-.631,3.2,3.2,0,0,1-.153-.456,1.153,1.153,0,0,1-.039-.249v-.613l-.85.562v.05a1.444,1.444,0,0,0,.645,1.177,2.245,2.245,0,0,0,1.378.478,2.332,2.332,0,0,0,1.37-.451,1.418,1.418,0,0,0,.651-1.2,1.9,1.9,0,0,0-.215-.907A1.876,1.876,0,0,0,384.205,125.661Z" transform="translate(-368.308 -121.275)" fill="#1d1d1b"/>
          <path id="Trazado_10" data-name="Trazado 10" d="M397.222,123.972a1.726,1.726,0,0,0-.38-.61,1.534,1.534,0,0,0-.581-.327,2.742,2.742,0,0,0-.619-.137c-.174-.014-.385-.021-.63-.021a2.708,2.708,0,0,0-2.039.879,1.563,1.563,0,0,0-.334-.426,1.436,1.436,0,0,0-.589-.312,3.781,3.781,0,0,0-.586-.115c-.172-.017-.379-.025-.617-.025a2.631,2.631,0,0,0-1.836.7V123h-.249l-.141.166a1.28,1.28,0,0,1-.275.232.594.594,0,0,1-.316.113h-.094v.3l.151.021c.013,0,.042.013.084.064a.281.281,0,0,1,.05.181V128.2a.264.264,0,0,1-.056.186.338.338,0,0,1-.08.07.32.32,0,0,1-.056.008h-.094v.309h1.075v-4.741a2.458,2.458,0,0,1,1.836-.842,1.719,1.719,0,0,1,.7.135,1.318,1.318,0,0,1,.462.318,1.556,1.556,0,0,1,.265.443,2.08,2.08,0,0,1,.131.459,2.708,2.708,0,0,1,.03.4v3.315l-.01.07a.188.188,0,0,1-.052.094.16.16,0,0,1-.121.042h-.093v.309h1.064v-3.829a3.118,3.118,0,0,0-.112-.856,2.413,2.413,0,0,1,1.9-.9,1.717,1.717,0,0,1,.7.135,1.318,1.318,0,0,1,.462.318,1.555,1.555,0,0,1,.265.443,2.077,2.077,0,0,1,.131.459,2.708,2.708,0,0,1,.03.4v3.315l-.01.07a.167.167,0,0,1-.055.09.163.163,0,0,1-.128.045h-.093v.309h1.074l-.01-3.849A2.574,2.574,0,0,0,397.222,123.972Z" transform="translate(-370.614 -121.28)" fill="#1d1d1b"/>
          <g id="Grupo_2" data-name="Grupo 2" transform="translate(27.419)">
            <path id="Trazado_11" data-name="Trazado 11" d="M407.16,123.2a2.768,2.768,0,0,0-1.267-.337,2.805,2.805,0,0,0-2.01.864,3.063,3.063,0,0,0,0,4.292,2.8,2.8,0,0,0,2.015.858,2.723,2.723,0,0,0,1.573-.486,2.962,2.962,0,0,0,1.053-1.274l.058-.131h-.651l-.025.054a3.262,3.262,0,0,1-.822,1.141,1.917,1.917,0,0,1-2.724-.428,3.117,3.117,0,0,1-.6-1.879v-.1h5.022v-.093a2.494,2.494,0,0,0-.482-1.478A3.217,3.217,0,0,0,407.16,123.2Zm-1.267-.027a1.824,1.824,0,0,1,1.449.7,2.99,2.99,0,0,1,.672,1.607h-4.243a3,3,0,0,1,.672-1.607A1.805,1.805,0,0,1,405.892,123.172Z" transform="translate(-403.002 -121.275)" fill="#1d1d1b"/>
            <path id="Trazado_12" data-name="Trazado 12" d="M407.824,121.146v-.652l-1.879,1.193.085.165Z" transform="translate(-403.973 -120.494)" fill="#1d1d1b"/>
          </g>
          <path id="Trazado_13" data-name="Trazado 13" d="M414.939,127.5a.683.683,0,0,1-.633.4.509.509,0,0,1-.338-.106.646.646,0,0,1-.194-.323,2.224,2.224,0,0,1-.089-.446c-.013-.143-.019-.322-.019-.533v-3.846h.929v-.33h-.929v-1.47h-.247l-.145.158a1.126,1.126,0,0,1-.273.24.592.592,0,0,1-.316.112h-.094v.3l.151.021a.161.161,0,0,1,.084.064.3.3,0,0,1,.05.191v.387h-.306v.33h.306v3.254c0,1.532.481,2.308,1.43,2.308a1.288,1.288,0,0,0,.957-.458l.067-.072-.337-.278Z" transform="translate(-378.739 -120.612)" fill="#1d1d1b"/>
          <g id="Grupo_3" data-name="Grupo 3" transform="translate(37.231 0.189)">
            <path id="Trazado_14" data-name="Trazado 14" d="M418.683,121.309l-.519-.533-.519.533.519.519Z" transform="translate(-417.645 -120.776)" fill="#1d1d1b"/>
            <path id="Trazado_15" data-name="Trazado 15" d="M418.119,123.1l-.027-.038h-.253v5.77H418.9v-.287l-.153-.021a.166.166,0,0,1-.084-.064.3.3,0,0,1-.05-.19v-4.123a.268.268,0,0,1,.056-.186.336.336,0,0,1,.08-.07.281.281,0,0,1,.056-.008h.094v-.309h-.094A.938.938,0,0,1,418.119,123.1Z" transform="translate(-417.708 -121.53)" fill="#1d1d1b"/>
          </g>
          <path id="Trazado_16" data-name="Trazado 16" d="M423.274,123.187a2.2,2.2,0,0,1,2.008,1.529l.025.053h.651l-.058-.131a2.979,2.979,0,0,0-1.053-1.274,2.73,2.73,0,0,0-1.574-.486,2.806,2.806,0,0,0-2.009.858,3.057,3.057,0,0,0-.006,4.287,2.8,2.8,0,0,0,2.015.858,2.727,2.727,0,0,0,1.574-.486,2.972,2.972,0,0,0,1.053-1.274l.058-.131h-.652l-.025.054a3.232,3.232,0,0,1-.822,1.151,1.912,1.912,0,0,1-2.722-.432,3.132,3.132,0,0,1-.605-1.884,3.068,3.068,0,0,1,.614-1.888A1.824,1.824,0,0,1,423.274,123.187Z" transform="translate(-381.317 -121.28)" fill="#1d1d1b"/>
          <path id="Trazado_17" data-name="Trazado 17" d="M435.536,123.9a.355.355,0,0,1,.08-.07.291.291,0,0,1,.057-.008h.093v-.309h-.093a.965.965,0,0,1-.7-.474l-.028-.037H434.7v.887c-.064-.063-.145-.136-.245-.221a5.612,5.612,0,0,0-.467-.353,2.5,2.5,0,0,0-.653-.3,2.638,2.638,0,0,0-.788-.121,2.809,2.809,0,0,0-2.009.858,3.057,3.057,0,0,0-.006,4.288,2.806,2.806,0,0,0,2.015.858,3.217,3.217,0,0,0,1.257-.3.18.18,0,0,0,.1-.115.132.132,0,0,0-.069-.16.2.2,0,0,0-.165.005,2.478,2.478,0,0,1-1.122.255,1.81,1.81,0,0,1-1.537-.814,3.123,3.123,0,0,1-.6-1.879,3.09,3.09,0,0,1,.615-1.894,1.821,1.821,0,0,1,1.527-.81,1.894,1.894,0,0,1,1.484.837,2.958,2.958,0,0,1,.669,1.866v2.88h1.064v-.287l-.151-.021a.163.163,0,0,1-.084-.064.3.3,0,0,1-.05-.19v-4.123A.269.269,0,0,1,435.536,123.9Z" transform="translate(-384.376 -121.285)" fill="#1d1d1b"/>
        </g>
      </g>
      <g id="Grupo_6" data-name="Grupo 6" transform="translate(0 0)">
        <circle id="Elipse_1" data-name="Elipse 1" cx="37" cy="37" r="37" transform="translate(-0.497 -0.142)" fill="#1d1d1b"/>
        <path id="Trazado_18" data-name="Trazado 18" d="M206.294,56.722a3.416,3.416,0,0,0-1.551-1.487,4.942,4.942,0,0,0-1.83-.422,5.56,5.56,0,0,0-1.765.225,8.322,8.322,0,0,0-1.344.511,11.224,11.224,0,0,0-5.033,2.751A17.956,17.956,0,0,0,191.3,63a27.464,27.464,0,0,0-2.233,5.96c-.345,1.369-.649,2.756-.909,4.148V61.325h-3.1v4.459c-.264-1.378-.578-2.748-.938-4.1a28.617,28.617,0,0,0-2.23-5.822,16.981,16.981,0,0,0-3.446-4.593,11.4,11.4,0,0,0-4.938-2.681,8.8,8.8,0,0,0-1.383-.526,5.707,5.707,0,0,0-1.765-.225,4.968,4.968,0,0,0-1.83.422,3.423,3.423,0,0,0-1.551,1.487l-.211.362.414-.068a2.5,2.5,0,0,1,1.2.1q.65.217,1.356.434a4.393,4.393,0,0,0,1.444.2,2.728,2.728,0,0,0,1.546-.664l.076-.06v-.1c0-.295-.346-.522-1.194-.783a5,5,0,0,0-1.431-.2,2.642,2.642,0,0,1,.623-.088,11.652,11.652,0,0,1,1.69.072,11.675,11.675,0,0,1,4.731,2.9,18.405,18.405,0,0,1,3.315,4.652,28.981,28.981,0,0,1,2.148,5.745,58.761,58.761,0,0,1,1.265,6.195c.3,2.047.538,4.052.7,5.959s.3,3.6.406,5.064V99.553h3.1v-12.4q.162-2.108.378-5.027c.143-1.939.361-3.981.647-6.068a58.441,58.441,0,0,1,1.239-6.356,31.084,31.084,0,0,1,2.149-5.961,18.342,18.342,0,0,1,3.341-4.812,12.019,12.019,0,0,1,4.83-3,10.558,10.558,0,0,1,1.725-.079,2.608,2.608,0,0,1,.622.087h-.038a4.7,4.7,0,0,0-1.393.2c-.847.259-1.192.487-1.192.783v.091l.069.059a2.514,2.514,0,0,0,1.525.669,4.412,4.412,0,0,0,1.471-.2q.7-.216,1.356-.433a2.509,2.509,0,0,1,1.2-.1l.413.068Z" transform="translate(-157.605 -30.424)" fill="#fff"/>
        <path id="Trazado_19" data-name="Trazado 19" d="M203.915,86.761A15.787,15.787,0,0,1,198.68,86c.114-.388.233-.812.351-1.263l.2-.034c1.033.667,5.01,1.372,6.561,1.372a3.9,3.9,0,0,0,.618-.042c4.52-.955,10.113-6,10.62-11.083.373-4.318-1.424-7.358-5.061-8.575a2.339,2.339,0,0,0-.747-.119h0a7.22,7.22,0,0,1-3.928-.9,6.087,6.087,0,0,1,.448-.982,10.92,10.92,0,0,0,1.841.182c6.86,0,15.425-9.35,15.8-17.247.122-2.6-.649-8.739-10.438-9.67q-.83-.078-1.688-.078c-7.764,0-16.412,4.95-18.231,16.01l-.174.059c-2.26-2.48-3.083-4.969-2.449-7.4.917-3.518,5-6.873,10.647-8.756a28.585,28.585,0,0,1,8.576-1.393,18,18,0,0,1,9.1,2.213c5.131,2.97,7.733,7.526,7.327,12.826a16.047,16.047,0,0,1-10.085,13.394,2.285,2.285,0,0,0-1.418,1.624,2.438,2.438,0,0,0,.586,2.195,1.441,1.441,0,0,0,.154.146,7.578,7.578,0,0,1,3.22,6.06c.037,3.555-2.258,7.027-4.55,8.892-2.386,1.962-7.337,3.329-12.039,3.329Z" transform="translate(-165.989 -26.546)" fill="#fff"/>
      </g>
    </g>
  </g>
</svg>
