<?xml version="1.0" encoding="utf-8"?>
<!-- Generator: Adobe Illustrator 24.1.2, SVG Export Plug-In . SVG Version: 6.00 Build 0)  -->
<svg version="1.1" id="Capa_1" xmlns="http://www.w3.org/2000/svg" xmlns:xlink="http://www.w3.org/1999/xlink" x="0px" y="0px"
	 viewBox="0 0 234.1 74" style="enable-background:new 0 0 234.1 74;" xml:space="preserve">
<style type="text/css">
	.st0{font-family:'Quentin';}
	.st1{font-size:55.7672px;}
	.st2{fill:#999999;}
	.st3{font-family:'Lato-Black';}
	.st4{font-size:7.7073px;}
	.st5{letter-spacing:5;}
</style>
<g>
	<g>
		<g>
			<text transform="matrix(1 0 0 1 8.6597 52.5181)" class="st0 st1">Chloe</text>
		</g>
	</g>
</g>
<g>
	<g>
		<path class="st2" d="M170.8,23.2c-1.4,1.1,0.9,6.4-0.5,4.8c-4.2-4.9,1,10.6-7,14c-9.3,19-26.7,9.9-34,20.1
			c0.1,0.5,0.7,0.8,1.2,0.6c5.3-7.6,15.1-3.4,22.3-6.9c7.8-2.8,9.3-14,17.8-14.6c2.5-0.6,4.9,2,6.8,2c0.8-3,6.3,4,7.6,6
			c2.9-0.8-3.3-7.2,2.9-2.6c4.4,3.8,14.6,7,11.6-0.8c1.4-2.1,4.9-0.7,5.4-3.8c0-1.3-1.7-2.2-0.9-3.6c-1.3-3.4-8.2-1.9-11.5-3.2
			c2.8-1.3,7.8-2.2,7.8-5.9c-1.7-2.7,0.6-6.5-1.8-8.6c-6.5-1.9-6.8-6.5-13.3,0.2c1.7-3.7,5.5-7.8,0.3-10.6c-1.8-0.9-1.4-4.8-4.1-2.6
			c-7.4-0.2,1.3-3.5-6-1.6C168,8.4,168.7,17.5,170.8,23.2z M184,22c-3.6,2-5.8,9.5-9.1,9.2c4.7-5.8,6.3-14.6,9.2-21.1
			c2.4,0.9-0.5,2.7,0.3,3.9c1.3,0.2,0.9-3.6,2.2-1.8c-0.3,0.8-2.5,4.4-0.9,3.9c0.9-0.9,0.8-2.3,1.5-3.2C188.5,16,184.3,18.8,184,22z
			 M189.8,45.5c1.8-1.1-5.6-2.9-6.7-4.2c4.4,1.6,14.9,2.3,16,6.5c-1.4,0.8-6.2-2.7-5.9-0.6c0.5,0.5,6.3,1.2,5.6,2.4
			C193.2,51.5,174.8,37.3,189.8,45.5z M203,37.8c1.9,3.1-5.1,0.4-4,2.3c5.5-0.9,7.7,4.4,1.1,3.2c-1.1,0.1,0.3,1-0.2,1.5
			c-5.3,0.1-11.4-3.8-17.2-4.4c4.3-1.2,8.2,0.9,12.3,1.6c1.6-1.5-5.7-1.6-6.8-2.6c1.3-0.6,7.7,1.6,6.6-0.2c-2.8-1-6.3,0.3-8.8-1.3
			c11.2,0.2,6.2-2-1-0.6C187.5,33.5,198.1,37.6,203,37.8z M171.7,40.4c1.2-0.6,3.6-1.7,2.5,0.5C173.4,40.7,172.6,40.5,171.7,40.4z
			 M171.7,38.9c0.5-0.5,3.4-1.5,2.9-0.1C173.8,38.3,171.4,40.1,171.7,38.9z M170.8,39.7c0.1,0.2,0,0.3-0.2,0.4
			C170.8,40,170.8,39.3,170.8,39.7z M172,37.7c1.4-0.3,2.4-2.9,2.5-0.5C174,37.3,172,37.8,172,37.7z M163,43.9
			c-1.5,4.4-7,9.9-11.9,11.9c-12.3,2.6,1.7-0.2,5.5-4.2C159.1,49.3,161.1,46.6,163,43.9z M176.5,32.6c2-4.2,15.9-18.3,9.9-10.9
			c3.1-1.8,8.1-6.3,2.7-0.6c0.2,2,2.7-2.2,4-2.4c1.8,1.4,1.1,1.9-0.6,3c-0.5,1.9,2.2-0.7,2.8-1c2.5,0.3,4.9,1.2,1.4,2.7
			c-0.7,1.6,1.8-0.1,2.3-0.4c0.1,4-0.4,4.1-3.8,5.6c-0.9-0.3-0.7,1.7,0.2,1c9-4.7,2.2,5-4,5.3c-5.5,0.9-1.7-0.9,1.5-2.2
			c0.4-2.3-8,3.2-9.2,3.9c-9.4,0.7-4.3-2.6,1.5-3.4c0.9-2.1-5.1,0.6-6.3,1.1c0.7-0.4,8.9-8,13-9.2c-1.1-3.4-19.5,14.7-10,4.5
			C181.3,26.2,176.2,36.7,176.5,32.6z M165.9,41c-0.2,0.5-0.6,0.7-1.1,1C165.1,41.6,165.5,41.3,165.9,41z M173.3,34.8
			c1.6-0.4-1.3,2.3-2.3,2.6C171.6,36.7,172.8,35.4,173.3,34.8z M172.8,34.1c-0.4,0.8-1.7,2-2.2,2.5C170.5,35.5,173,31.6,172.8,34.1z
			 M171.2,31.9c1.3,0.7-0.5,1.8-0.9,2.8C168.8,37.7,170.3,33,171.2,31.9z M170.5,31.4c-1,1.4-1.7,3.8-1.8,4.8
			C168.4,34.8,168.7,29.4,170.5,31.4z M173.3,25.3c0,0.3,0.1,1-0.2,1.2C173.3,26.1,173.3,25.7,173.3,25.3z M180.5,10.2
			c1.3-2.2,4.1-3.7,2.5,0.3c-2.5,6.1-4.5,16.9-10.2,19.4c-0.1-1.5,2.9-2.2,2.1-4.1c0.4-1.9,5.3-8.5,3.2-8.6
			c-0.9,2.1-4.8,10.4-3.4,4.8C174.9,18.8,179.7,3.8,180.5,10.2z M174.3,19.9c-0.6-3.6,0.6-11.7,4.5-11.6
			C176.2,11.6,175.2,15.8,174.3,19.9z M174.7,7.4c-0.5,1-2.4,2.4-1.8,3.5c4.5-5.4,4.6-4.4,1.1,1.5c-1.5,2.4,0.3,6.4-1.4,7.9
			c-0.7-9.6-1.6-5.2-0.8,1.1c-1.7-0.6-2.8-6.4-1.2-8.9C171,10.6,174.1,6.4,174.7,7.4z"/>
		<path class="st2" d="M181.8,21.3c0.2,0.9-1.6,3.2-2.5,3.1C179.2,23.6,180.9,21.3,181.8,21.3z"/>
	</g>
</g>
<text transform="matrix(1 0 0 1 141.8944 67.5054)" class="st3 st4 st5">COSMETIc</text>
</svg>
