<?xml version="1.0" encoding="utf-8"?>
<!-- Generator: Adobe Illustrator 25.0.1, SVG Export Plug-In . SVG Version: 6.00 Build 0)  -->
<svg version="1.1" id="Capa_1" xmlns="http://www.w3.org/2000/svg" xmlns:xlink="http://www.w3.org/1999/xlink" x="0px" y="0px"
	 viewBox="0 0 234.1 74" style="enable-background:new 0 0 234.1 74;" xml:space="preserve">
<style type="text/css">
	.st0{fill:#999999;}
	.st1{enable-background:new    ;}
</style>
<g>
	<g>
		<path d="M64.3,37c0.3-0.3,0.7-0.6,1.1-0.7c0.2-0.1,0.3-0.1,0.4-0.4c-0.4,0-0.7,0.1-1.1,0.3c-1.1,0.7-2.3,1.7-3.6,2.2
			c0,0.2-0.2,0.3-0.2,0.3c-0.1,0.1-0.1,0.2,0,0.2c0,0.1,0.2,0.1,0.2,0.2c0,0,0.1-0.1,0.2-0.1c0.4-0.2,0.7-0.6,1-0.6
			c0.5-0.1,0.8-0.2,1.1-0.6C63.7,37.4,64,37.3,64.3,37z"/>
		<path d="M51,45.9h0.6l0.4-0.5c0.4-0.1,0.7-0.5,0.9-0.8h-0.4C51.9,44.8,51.4,45.3,51,45.9z"/>
		<path d="M66.8,35.1c-0.4-0.1-0.7,0.2-0.9,0.3c-0.1,0.1-0.1,0.4-0.1,0.5l0.6-0.3C66.6,35.4,66.7,35.3,66.8,35.1z"/>
		<path d="M52.9,46.4h0.2c0.2,0,0.3,0.1,0.4,0c0.2-0.2,0.2-0.3,0.3-0.7h-0.1C53.4,45.7,53.3,46.2,52.9,46.4z"/>
		<path d="M41.9,55.1C42,55,42,55,42,55C41.9,55,41.7,55,41.9,55.1z"/>
		<path d="M51.5,46.2H51C51.3,46.6,51.3,46.6,51.5,46.2z"/>
		<path d="M51.8,46c-0.1,0-0.2,0-0.2-0.1v0.3C51.5,46.2,51.7,46.2,51.8,46z"/>
		<path d="M50,46.3c-0.7,0.4-1.3,0.9-2,1.4c-0.1,0.1,0,0.4-0.1,0.4c-0.1,0-0.2,0-0.4,0.1c-0.3,0.3-0.8,0.4-1.3,0.8
			c-0.6,0.3-1.3,0.6-1.5,1.2h0.3c0.9-0.3,1.5-1.1,2.3-1.5l0.3-0.2l0.3-0.4c0.2,0.1,0.4,0,0.6-0.3c0.7-0.7,1.5-1.2,2.3-1.6v-0.3
			C50.6,45.8,50.4,46.2,50,46.3z"/>
		<path d="M45,51.8c-0.4,0.2-0.7,0.4-0.7,0.9c0.5,0,0.8-0.2,1.3-0.5c0.5-0.2,0.9-0.5,1.3-0.9c0.9-0.5,1.6-1.2,2.5-1.7
			c0.1,0,0.1-0.1,0.1-0.1c-0.2-0.1-0.3-0.2-0.3-0.3c-1.1,0.9-2.3,1.3-3.3,2.3L45,51.8z"/>
		<path d="M51.7,47.4c-0.2,0.2-0.4,0.2-0.7,0.3c-0.4,0.6-1,0.8-1.6,1.1c-0.1,0-0.1,0.3-0.4,0.5c0.3,0,0.3,0.1,0.3,0.2
			c0.4-0.2,0.7-0.4,1.2-0.7c0.4-0.2,0.8-0.6,1.1-1.1C51.9,47.6,51.8,47.6,51.7,47.4L51.7,47.4z"/>
		<path d="M43,51.3l-1.2,0.8c-0.4,0.2-0.8,0.8-1.3,1.1c-0.4,0.2-0.8,0.5-1.3,0.7c-1.1,0.8-2.3,1.8-3.6,2.3l-0.4,0.4
			c-0.5,0.4-1.1,0.7-1.7,1c-0.9,0.4-1.7,0.9-2.5,1.2c-0.5,0.4-1.2,0.7-1.8,0.9c-0.9,0.4-1.8,0.6-2.6,0.9c-0.6,0.2-1.2,0-1.7,0.3
			c-0.2,0.2-0.6,0.1-0.7,0c-0.7-0.1-1.3-0.3-1.8-0.4c-0.4-0.1-0.7-0.3-0.8-0.4c-0.2-0.1-0.3-0.3-0.3-0.4c0-0.7-0.4-1.4-0.4-2v-2.8
			c0-0.2,0-0.3,0.2-0.5c0.2-0.3,0.2-0.8,0.2-1.2c0.1-0.4,0.2-0.8,0.2-1.1c0.1-0.4,0.3-0.8,0.3-1.2c-0.1-0.7,0.1-1.2,0.7-1.6
			c0.3-0.2,0.5-0.7,0.6-1l0.4-1.3c0.2-0.1,0.2-0.2,0.2-0.3c-0.1-0.4,0.2-0.8,0.5-1.1c0.5-0.4,0.8-0.9,1.1-1.4
			c-0.1-0.5,0.3-0.7,0.5-0.9c0.4-0.8,1.2-1.4,1.1-2.5c0-0.1,0.2-0.1,0.3-0.3c0.2-0.1,0.2-0.5,0.5-0.6l0.6-0.4
			c0.5-0.7,1.3-1.5,1.6-2.3c0.4-0.9,1.2-1.5,1.8-2.3c0.2-0.4,0.7-0.6,0.7-1.1c0.4-0.4,0.7-0.8,1.1-1c0.2-0.3,0.4-0.4,0.6-0.7
			c0.4-0.7,0.8-1.3,1.5-1.6L36,30l0.6-0.7c0.3-0.4,0.5-0.7,0.6-0.9c0.3-0.2,0.7-0.4,0.9-0.7c0.4-0.6,1.1-1.1,1.5-1.7
			c0.3-0.1,0.4-0.4,0.7-0.6c0.7-0.5,1.4-1.2,2.1-1.8c0.4-0.2,0.9-0.6,1.2-0.9c0.4-0.6,1-0.9,1.5-1.4c0.2-0.1,0.4-0.2,0.7-0.2
			c0.2-0.1,0.4-0.1,0.6-0.3c0.3-0.4,0.7-0.6,1.1-0.7l0.8-0.5c0.6-0.5,1.2-0.8,1.9-1.2l3.3-2c0.4-0.2,0.9-0.6,1.5-0.7
			c0.4-0.2,1.1-0.3,1.3-0.5c0.4-0.6,1-0.6,1.6-0.8c0.4-0.3,1.2-0.2,1.6-0.5c0.9-0.5,2.1-0.6,3.1-0.9c0.7-0.1,1.6-0.4,2.5-0.2
			c0.2,0,0.4,0,0.4-0.1c0.4-0.3,1-0.2,1.4-0.4l1.3,0.7c0.8,0.8,1.3,1.8,1.5,3c0,0.4-0.1,1,0,1.6c0.2,1.1-0.5,2.2-1.1,3.2
			c-0.6,1.1-1.5,2.1-2.4,3.1c-0.1,0.2-0.2,0.3-0.4,0.5l-0.7,1.1c0,0,0.1,0.3,0.2,0.3c0.3,0.1,0.6,0.3,0.9,0.2
			c0.8-0.2,1.6-0.4,2.2-1.2l2.1-2.1c0.7-0.7,1.2-1.5,1.6-2.3c0.1-0.1,0.1-0.4,0.1-0.6c0.3-0.6-0.1-1,0.3-1.5c0.1-0.1,0-0.1,0-0.3
			c-0.2-0.3-0.2-0.7-0.2-1.1c0-0.5-0.5-0.6-0.6-1v-0.3c-0.5-1.2-1.2-2.2-2.3-3c-0.3-0.3-0.7-0.4-1.2-0.7c-0.4-0.2-0.9-0.2-1.2-0.5
			c0-0.1-0.2-0.1-0.2-0.1L65.1,11c-0.3,0.1-0.5-0.2-0.8,0c-0.2,0.1-0.6,0.1-0.9,0.1c-0.2,0.1-0.6,0-0.7,0.1l-0.9,0.3
			c-0.5,0.1-1,0.1-1.5,0.1c-0.2,0-0.3,0.1-0.4,0.1c-0.6,0.4-1.2,0.4-1.7,0.7l-3.3,1.1c-0.7,0.3-1.4,0.7-2.1,1
			c-0.4,0.4-0.9,0.4-1.3,0.7c-0.5,0.2-0.9,0.5-1.4,0.8c-0.5-0.1-0.8,0.4-1.3,0.7c-1.4,0.7-2.7,1.3-3.8,2.5c-0.2,0-0.2,0.1-0.2,0.1
			c-0.6,0-0.8,0.4-1.2,0.8l-0.5,0.3c-1.5,0.7-2.7,1.7-3.8,2.7l-0.9,0.8c-0.6,0.6-1.1,0.8-1.5,1.3c-0.2,0.4-0.6,0.7-0.8,0.8
			c-0.3,0.3-0.4,0.7-0.8,0.9c-0.2,0.1-0.4,0.3-0.4,0.5c-0.2,0.3-0.6,0.6-0.9,0.9c-0.7,0.7-1.3,1.2-1.8,1.9l-1.1,1.3
			c-0.4,0.5-0.7,1-1.2,1.5c-0.7,0.7-1.3,1.4-1.7,2.3c-0.6,0.5-0.9,1.3-1.4,1.9c-0.2,0-0.2,0.1-0.2,0.2c0.3,0.4-0.1,0.6-0.2,0.6
			c-0.4,0-0.6,0.2-0.7,0.6c-0.2,0.3-0.2,0.7-0.6,0.8c-0.1,0.2-0.1,0.2-0.2,0.2c-0.2,0.2-0.3,0.4-0.3,0.4l-0.1,0.2v0.1l-0.7,1.1
			c-0.1,0.1-0.1,0.3-0.3,0.3L23,42.1c0,0.2,0,0.3-0.2,0.4c0,0,0,0.1-0.1,0.1L22.5,43c0.2,0.2,0.1,0.2,0,0.2l-0.3,0.4
			c0,0.1-0.1,0.2-0.2,0.2c0.1,0,0,0.2,0,0.2l-0.5,0.6c0,0.1,0.1,0.2,0,0.2l-0.9,2.3c-0.2,0.4-0.2,1-0.4,1.3c-0.6,0.8-0.9,2-1,2.8
			c-0.2,1.1-0.5,2.2-0.7,3.2c-0.2,1.1,0.1,1.9,0.5,3.2c0.1,0.4,0.3,0.8,0.6,1.2c0.1,0.5,0.4,0.9,0.6,1.3c0.5,1.3,1.4,2.3,2.8,2.6
			c0.2,0,0.4,0.2,0.7,0.3c0.1,0,0.3,0.2,0.4,0.2c0.6,0,1.1-0.1,1.8,0.2h0.2c0.2-0.1,0.5-0.2,0.8-0.2c0.7,0,1.5-0.4,2.2-0.3
			c0,0,0.1-0.1,0.3-0.1l2.5-1.1c0.5-0.2,0.9-0.4,1.2-0.7c0.3-0.4,0.9-0.4,1.2-0.8c0.2-0.4,0.8-0.5,1.2-0.8c1-0.7,1.8-1.4,2.9-1.8
			l0.3-0.3c-0.2-0.2-0.3-0.2-0.4-0.2c0,0-0.1,0-0.1-0.1l0.1-0.1c0.2,0,0.4,0.1,0.4,0.3l1.3-0.8c0.7-0.4,0.8-0.6,1.2-1.6
			c0-0.1,0.2-0.3,0.5-0.4c0,0,0.2,0.2,0.2,0.3h0.1l0.1-0.2c0.2-0.2,0.6-0.1,0.8-0.2c0.2-0.3,0.3-0.5,0.6-0.6
			c0.4-0.2,0.2-0.5,0.2-0.8c0.2-0.1,0.2-0.2,0.3-0.4c-0.1,0-0.3,0-0.3,0.1c-0.8,0.4-1.3,0.9-2,1.3c-0.5,0.3-0.9,0.6-1.3,0.9
			c-0.2,0.2-0.4,0.6-0.6,0.6C39,56,38.3,56.6,37.5,57l-2,1.1c-0.3,0.1-0.6,0.3-0.9,0.4c-0.9,0.6-1.9,1.1-3,1.5
			c-0.2,0.1-0.6-0.1-0.7,0.3h-0.2c-0.1,0-0.1-0.2-0.2-0.2c-0.1-0.1-0.1-0.2,0-0.2c0.6-0.2,1.3-0.7,2-0.9l0.6-0.2v-0.1
			c0.7-0.7,1.6-0.9,2.1-1.6c0.1-0.1,0.3-0.1,0.4-0.1c0.3-0.1,0.6,0,0.7-0.4c0-0.1,0.2-0.2,0.3-0.3c0,0,0.1,0,0.1-0.1h0.6
			c0.2-0.1-0.1-0.5,0.3-0.5c0.8-0.7,1.7-1.1,2.5-1.8c0.6-0.2,0.9-0.8,1.5-0.9l2.8-2l0.5-0.8c-0.2,0.1-0.4,0-0.5,0.1L43,51.3z"/>
		<path d="M57.6,41.6c0.1-0.2,0.2-0.2,0.2-0.4c0.1,0,0.1-0.1,0-0.2c0-0.2-0.1-0.2-0.2-0.1c-0.3,0.2-0.6,0.6-0.9,0.8
			c-0.3,0.2-0.8,0.6-0.9,1.1h0.4L57.6,41.6z"/>
		<path d="M33.2,58.8c-0.1,0-0.1,0-0.2-0.1C33,58.8,33,59,33.2,58.8z"/>
		<path d="M54.7,43.3c-0.1,0.1-0.1,0.2,0,0.2H55c0.2-0.2,0.6-0.4,0.7-0.7C55.2,42.6,54.9,42.9,54.7,43.3z"/>
		<path d="M57,43.4c0.6,0,0.8-0.2,1.1-0.7C57.5,42.7,57.3,43,57,43.4z"/>
		<path d="M58.9,40.6l0.5-0.4c0.2-0.1,0.2-0.1,0.2-0.3c0.2,0,0-0.1-0.1-0.2h-0.2c-0.4,0.1-0.9,0.4-1.2,0.9c-0.1,0.1-0.1,0.1-0.1,0.3
			c0.1,0.2,0.2,0.2,0.2,0.4c0.1,0.1,0.1,0.3,0.3,0.1c0.1-0.1,0.2-0.3,0.2-0.3C58.6,40.9,58.7,40.8,58.9,40.6z"/>
		<path d="M56.1,44.2c-0.1,0.1-0.1,0.1,0,0.2h0.3c0.3-0.3,0.6-0.5,0.7-0.7C56.5,43.4,56.3,43.7,56.1,44.2z"/>
		<path d="M77.9,26.5h-0.2c0.1,0.1,0.1,0.1,0.1,0.3C77.9,26.6,77.9,26.6,77.9,26.5z"/>
		<path d="M78.6,25.7L78.6,25.7C78.6,25.7,78.6,25.7,78.6,25.7z"/>
		<path d="M76.1,26.9c-0.1,0.4-0.2,0.7-0.5,0.9c-0.2,0.1-0.4,0.2-0.4,0.4c0.2,0,0.4,0,0.6,0.1c-0.1,0.1-0.2,0.3-0.2,0.3
			c-0.1,0.3-0.1,0.4,0.1,0.4c0.3-0.1,0.5-0.1,0.8-0.2c0.3-0.2,0.2-0.3,0.2-0.5c0.1-0.1,0.3-0.1,0.5-0.1h0.1
			c-0.1-0.1-0.1-0.2-0.1-0.2c-0.2,0-0.4,0-0.5-0.1c0-0.2,0.2-0.2,0.3-0.3c0.3,0,0.4-0.1,0.4-0.2c0-0.2-0.2-0.3-0.4-0.3h-0.3
			c0-0.1,0-0.3,0.1-0.5c0-0.1,0.1-0.2,0.1-0.4c-0.2,0.1-0.3,0.1-0.5,0.1C76.3,26.5,76.3,26.8,76.1,26.9z"/>
		<path d="M76.3,26.1c-0.1,0-0.2,0.1-0.2,0.2h0.2v0.1h0.1v-0.1L76.3,26.1z"/>
		<path d="M75.2,28.4c-0.3,0.1-0.6,0.3-0.6,0.8C75.1,29.1,75.2,28.7,75.2,28.4z"/>
		<path d="M74.6,29.2c-0.2,0.2-0.6,0.4-0.7,0.7L73.5,30v0.5C74.3,30,74.5,29.9,74.6,29.2z"/>
		<path d="M81.8,21.5V22C82,21.8,82,21.7,81.8,21.5z"/>
		<path d="M73.6,31.2h-0.1c0.1,0.1,0.1,0.1,0.1,0.2C73.6,31.2,73.6,31.2,73.6,31.2z"/>
		<path d="M72.6,32.8h0.2c0-0.1,0-0.1-0.1-0.2C72.8,32.7,72.7,32.7,72.6,32.8z"/>
		<rect x="68.1" y="38.6" width="0.2" height="0.6"/>
		<polygon points="71.5,32.3 71.5,32.3 71.4,32.3 		"/>
		<path d="M76,26.9v-0.5c-0.3,0.3-0.7,0.5-0.8,0.9C75.5,27.3,75.8,27.1,76,26.9z"/>
		<path d="M70.6,33.4c0.2-0.1,0.4-0.2,0.6-0.3v-0.6C70.8,32.8,70.6,33.1,70.6,33.4z"/>
		<path d="M70.3,34.8c-0.4,0.2-0.4,0.5-0.7,0.7c-0.1,0.1-0.2,0.1-0.4,0.1c0-0.1-0.1-0.2-0.1-0.3c-0.5,0.4-0.8,1.2-1.6,1.4
			c0,0-0.1,0.3,0,0.3c0.2,0.3-0.1,0.7,0.3,0.8c0.2,0,0.2,0.3,0.2,0.5c0.1,0,0.2,0,0.2,0.2c0.6-0.1,1.1-0.2,1.4-0.5
			c0.6-0.4,1.1-0.6,1.7-0.8l0.6-0.3c1.7-1,3.5-2,4.9-3.2c1-0.7,2-1.5,2.9-2.2c1.2-0.9,2.3-1.7,3.4-2.7c0.9-0.9,2-1.7,2.9-2.8
			l1.4-1.6c0.3-0.6,1-1.1,1.6-1.6c0.8-0.7,1.6-1.5,2.2-2.3c0.3-0.4,0.7-0.6,0.9-0.9c0.4-0.6,0.6,0.8,3.8-6.3c0-0.2,0.1-0.4,0.1-0.4
			c0-0.2,0-0.3-0.1-0.4c-0.9-0.9-1.6-1.8-3-1.8c-1.2-0.1-2.3-0.1-3.1,0.8c-0.4,0.3-0.6,0.4-0.9,0.8c-0.2,0.2-0.4,0.4-0.7,0.6
			c-0.4,0.1-0.7,0.5-1.1,0.8c-0.8,0.8-1.6,1.5-2.5,2.2c-2,2.1-2.7,2.2-2.6,3h0.2l-0.2,0.3c-0.1,0.2-0.2,0.1-0.3,0
			c-0.7,0.2-1.2,0.8-1.4,1.7h0.2v0.4h-0.2c0-0.1,0-0.3-0.1-0.4c-0.6,0.2-0.8,0.7-1.1,1.2v0.2h0.3c-0.1,0.2-0.1,0.3-0.3,0.3v-0.3
			c-0.6,0-0.8,0.5-0.8,0.9l0.4-0.3c0.1,0,0.3-0.1,0.4-0.2v0.4c0.3-0.2,0.6-0.4,0.8-0.7c0.2-0.2,0.2-0.3,0.4-0.3
			c0,0.1-0.1,0.2-0.1,0.3h-0.2c-0.3,0.6-0.3,1.1-0.7,1.5c-0.1,0.2-0.2,0.4-0.4,0.6c-0.3,0.3-0.5,0.3-0.7,0c0.1-0.2,0.2-0.2,0.3-0.4
			c0.1-0.2,0.1-0.4,0.1-0.7c-0.1,0.2-0.3,0.3-0.5,0.4v-0.6c-0.5,0.2-1,0.7-1.1,1.3h0.3c0,0.2-0.1,0.2-0.1,0.3
			c-0.1-0.1-0.1-0.1-0.2-0.3c-0.4,0.3-0.7,0.7-0.9,1.2c-0.2,0.1-0.2,0.2-0.2,0.3c0.2-0.1,0.3-0.1,0.5-0.2v0.5
			c0.2-0.1,0.4-0.1,0.6-0.2v0.4h0.3c0,0,0-0.1,0.1-0.1c0,0,0,0.1,0.1,0.1h0.1c0.3-0.2,0.5-0.4,0.5-0.8c0.5-0.3,1.1-0.8,1.7-0.9
			c0.4-0.3,0.7-0.8,0.8-1.2c0-0.4,0.1-0.7,0.3-1.1c0.2-0.2,0.3-0.3,0.4-0.5c-0.4-0.2-0.4-0.2-0.9,0.1l0.1-0.1h-0.1
			c0-0.2,0-0.3,0.1-0.6c0.1-0.1,0.4-0.2,0.6-0.3c0-0.2,0.1-0.3,0.3-0.3v0.3c0.1,0,0.3,0,0.4,0.1c0.1,0,0.2,0.1,0.4,0
			c0-0.1,0-0.1,0.1-0.2c2.7-2.5,1.2-1.7,6.5-6.5c0.7-0.6,1.3-1.1,2.1-1.6c0.2-0.2,0.2-0.2,0.3-0.4c0.2-0.6,0.7-0.7,1-0.9
			c0-0.1,0.4,0,0.5,0.1c0.4,0.6,0.6,0.9,0.3,1.6c-1.8,3.6-4.1,6.2-6.7,8.8c-1.1,0.9-2,1.9-3.1,2.8c-1,0.9-2.1,2-3.2,2.7
			c-0.9,0.7-1.6,1.5-2.6,2.1c-0.2,0.3-0.6,0.6-0.9,0.7c-0.6,0.4-1.2,0.8-1.7,1.2c-0.4,0.3-0.8,0.6-1.1,1c-0.4,0.4-0.9,0-1.4,0.3
			c0,0.4-0.2,0.7-0.4,0.9c-0.1,0.2-0.2,0.2-0.2,0.2c-0.6-0.3-0.6,0.6-1,0.4v-0.6C70.7,33.9,70.3,34.2,70.3,34.8z M78.4,25.5h-0.3
			c0-0.5,0.2-0.7,0.5-0.9C78.6,25,78.4,25.2,78.4,25.5z M83.5,18.9L83.5,18.9c-0.1,0.1-0.1,0.2-0.2,0.2l-0.2,0.2
			c-0.1,0.5-0.4,0.7-0.8,0.9c0-0.4,0.2-0.7,0.6-0.9c0.2-0.4,0.4-0.6,0.8-0.8l-0.1,0.1h0.1C83.8,18.8,83.7,18.9,83.5,18.9z M85,17.4
			l-0.1,0.2l-0.7,0.6c-0.1,0-0.1,0.1-0.1,0.1h0.1c-0.1,0.2-0.2,0.3-0.2,0.3c0-0.1,0-0.2,0.1-0.2v-0.5c0.2-0.1,0.3-0.1,0.3-0.3
			c0.2-0.2,0.4-0.4,0.8-0.6C85.2,17,85.2,17.3,85,17.4z M91.5,17.1c0.1,0.2,0.1,0.5-0.2,0.6C91.3,17.5,91.3,17.3,91.5,17.1z"/>
		<path d="M75.7,29.6c0-0.1,0-0.1-0.1-0.1c-0.1,0.1-0.2,0.3-0.3,0.3c0,0.1,0.1,0.1,0.1,0.1C75.6,30,75.8,29.9,75.7,29.6z"/>
		<path d="M74.7,30.7c-0.1,0.1-0.2,0.3-0.3,0.3c-0.1,0.1-0.2,0.2-0.4,0.2l-0.2,0.8c0.2,0,0.4-0.1,0.6-0.3c0.3-0.1,0.5-0.4,0.7-0.6
			c0.2-0.1,0.4-0.4,0.3-0.6C75.1,30.2,75,30.5,74.7,30.7z"/>
		<polygon points="81.8,21.5 81.8,21.2 81.5,21.2 		"/>
		<path d="M72.6,31.2c0.1,0.4-0.2,0.7-0.4,0.9c0,0.2-0.2,0.3-0.4,0.2c0-0.1,0.1-0.2,0.4-0.2c-0.2-0.2-0.2-0.4-0.2-0.6
			c-0.3,0.2-0.6,0.4-0.4,0.8c0.1,0,0.2,0.1,0.3,0.1c0,0.4-0.2,0.7-0.6,0.8v0.6c0.2-0.2,0.3-0.3,0.6-0.5c0.2-0.2,0.4-0.4,0.6-0.4
			c-0.1-0.4,0.1-0.7,0.4-0.8v-0.1c0-0.4,0.3-0.6,0.7-0.8v-0.6c-0.2,0.1-0.4,0.2-0.7,0.4v-0.6c-0.4,0.1-0.4,0.4-0.4,0.8H72.6z"/>
		<path d="M73,30c0,0.1,0,0.2-0.1,0.3c0.3-0.1,0.5-0.2,0.7-0.2C73.3,29.8,73.1,29.6,73,30z"/>
		<rect x="61.4" y="49.5" width="0.1" height="0.1"/>
		<path d="M62.6,45.7c-0.2,0.1-0.2,0.3-0.2,0.6h0.2V45.7z"/>
		<path d="M61.7,48v-0.5C61.4,47.7,61.4,47.8,61.7,48z"/>
		<rect x="78.9" y="41.1" width="0.1" height="0.1"/>
		<rect x="78.3" y="41.1" width="0.1" height="0.1"/>
		<path d="M67.7,40.5c0.1,0,0.2-0.1,0.2-0.1c0.2-0.1,0.2-0.3,0.2-0.3c-0.2,0.1-0.3,0.1-0.4,0.2C67.6,40.4,67.6,40.5,67.7,40.5z"/>
		<path d="M79.5,41.3H79v0.2C79,41.3,79.4,41.4,79.5,41.3z"/>
		<rect x="64" y="44.8" width="0.1" height="0.1"/>
		<rect x="61.7" y="47.4" width="0.2" height="0.1"/>
		<rect x="61.7" y="49.5" width="0.2" height="0.1"/>
		<path d="M62.4,46.9v-0.6c-0.5,0.2-0.7,0.6-0.5,1.1H62C62,47.2,62.1,46.9,62.4,46.9z"/>
		<path d="M64,44.8v-0.5C63.7,44.6,63.7,44.6,64,44.8z"/>
		<path d="M63.4,44c-0.3,0.3-0.4,0.7-0.5,1.2C63.4,44.9,63.5,44.5,63.4,44z"/>
		<path d="M64.6,43.4h0.3v-0.6C64.6,43,64.7,43.3,64.6,43.4z"/>
		<path d="M64.9,41.7c-0.4,0.2-0.5,0.5-0.6,0.8C64.7,42.4,64.9,42.1,64.9,41.7z"/>
		<path d="M79.5,40.8c0.1-0.1,0.2-0.3,0.2-0.4c-0.7,0.2-1.1,0.4-1.3,0.8h0.5C79,40.8,79.3,40.9,79.5,40.8z"/>
		<path d="M64,43.3c-0.4,0.1-0.5,0.3-0.5,0.7C64,43.8,64,43.6,64,43.3z"/>
		<path d="M80.9,39.7c-0.4,0-0.8,0.2-1.1,0.7h0.8c0,0.1-0.1,0.1-0.1,0.2c-0.1,0.1-0.2,0.1-0.3,0.2c0.1,0,0.3,0.1,0.4,0.1
			c0.3-0.2,0.7-0.4,0.9-0.7h-0.6V39.7z"/>
		<path d="M63.7,45.5c0-0.2-0.1-0.2-0.1-0.3c-0.1,0.1-0.2,0.1-0.2,0.2c-0.2,0.2-0.2,0.4-0.2,0.6c0.2-0.1,0.3-0.2,0.4-0.3V45.5z"/>
		<path d="M65.4,44c0.5-0.4,0.9-0.7,0.9-1.4v-0.1h-0.2l0.2-0.1c0.1,0,0.1,0.1,0.1,0.1c0.2-0.2,0.4-0.6,0.6-0.8
			c-0.1-0.1-0.2-0.1-0.2-0.1c-0.2,0-0.3,0.1-0.6,0.2c-0.3,0.2-0.2,0.7-0.6,0.8c0.1,0.2,0.2,0.6-0.2,0.7l-0.1,0.1v0.1h-0.3
			c0,0.3-0.1,0.8-0.6,0.9v0.5h0.3C64.8,44.5,65.1,44.2,65.4,44z"/>
		<path d="M66.6,39.2c0.3-0.2,0.5-0.5,0.6-0.9C66.8,38.5,66.6,38.7,66.6,39.2z"/>
		<path d="M123.5,22h-0.7v0.5C123.2,22.5,123.4,22.2,123.5,22z"/>
		<path d="M99.9,36.3c-0.2,0.1-0.3,0.3-0.3,0.5h0.3V36.3z"/>
		<path d="M104.6,30.3c-0.2,0-0.3,0.1-0.3,0.3h0.3V30.3z"/>
		<polygon points="96.5,42.4 96.5,42.4 96.5,42.2 		"/>
		<polygon points="98.4,38.5 98.6,38.6 98.6,38.5 		"/>
		<path d="M98.8,38H99v-0.3C98.9,37.7,98.8,37.8,98.8,38z"/>
		<path d="M98.8,38.1c-0.2,0.1-0.2,0.2-0.2,0.4h0.2V38.1z"/>
		<path d="M164,40.6c-0.2-0.1-0.3-0.2-0.5-0.3c-0.4-0.6-0.9-0.7-1.6-0.4c-0.4,0.3-0.9,0.6-1.4,0.7c-0.6,0.2-1.1,0.3-1.6,0.6
			c-1.7,0.7-3.6,1.7-5.5,2.5c-0.3,0.1-0.6,0.1-0.7,0.3c-0.6,0.2-1.1,0.5-1.5,0.9c-0.3,0.3-0.3,0.3-0.6,0c-0.9,0.5-1.8,0.9-2.8,1.5
			c-0.9,0.3-1.9,0.9-2.8,1.1c-1.1,0.3-2.3,0.7-3.6,0.7c-0.6,0.3-1.3,0-1.9-0.2c-0.4-0.2-0.6-0.5-0.4-1.1c0.5-1.5,1.6-2.6,2.5-3.9
			c0.2-0.2,0.3-0.2,0.5-0.2c0.9,0,1.8,0.2,2.5,0.2c0.5,0,1.1,0.1,1.6-0.2c1.8-0.3,3.7-0.8,5.2-2.1l0.8-0.5c1.1-0.4,1.6-1.5,2.3-2.3
			c0.6-0.6,0.6-1.4,0.1-2.2c-0.2-0.3-0.4-0.8-0.9-1.2c-0.1-0.1-0.4-0.2-0.6-0.2c-0.2-0.2-0.4,0-0.5-0.2c-0.7-0.4-1.3-0.3-2,0.2
			c-0.5,0.2-1.2,0.3-1.7,0.5c-0.7,0.1-1.5,0.4-2,0.8c-1.9,1-3.5,2.3-5.1,3.7c0,0,0,0,0,0c-0.2,0-0.4,0.1-0.6,0.2
			c-0.3,0.3-0.7,0.5-1.2,0.7c-0.9,0.2-1.7,0.3-2.5,0.6c-1.4,0.3-2.7,0.6-4.1,0.8c-0.9,0.2-1.8,0.2-2.7,0c0.3-0.7,0.5-1.3,0.7-2
			c0.4-1.5,0.3-3.1-0.9-4.3c-0.3-0.3-0.6-0.7-0.8-1.1c-0.2-0.2,0.1-0.2,0.2-0.2c0.3-0.2,0.3-0.6,0-0.7c-0.7-0.2-1.3-0.7-2.1-0.4
			c-0.4,0.2-0.8,0.2-1.2,0.2c-0.6-0.1-1.1-0.1-1.6,0c-0.4,0-0.8,0-1.1,0.2c-0.7,0.3-1.5,0.6-2.2,0.9c-0.4,0.3-0.8,0.7-1.2,1.2
			c-0.3,0.4-0.4,0.9-0.4,1.6c0,0.5-0.2,1.1-0.7,1.6c-0.5,0.5-0.9,1.1-1.4,1.7c-0.3,0.2-0.7,0.4-1,0.6c-0.4,0.2-0.9,0.5-1.2,0.9
			c-0.1,0.3-0.4,0.5-0.8,0.4c-0.1,0-0.4,0.2-0.4,0.4c-0.2,0.1-0.3,0.3-0.6,0.5c-1.3,0.7-2.6,1.9-4,2.8c-2,1.3-4,2.5-6,3.6
			c-1.4,0.9-3.2,1.6-5,2c-1.1,0.2-2.1,0.1-3.2-0.1c-0.6-0.1-0.8-0.6-0.8-1.1c0-0.6,0-1.1,0.4-1.6v-0.1c-0.6-0.3-0.1-0.5,0.1-0.7
			c0.1-0.2,0.3-0.4,0.3-0.6c0.2-0.5,0.4-0.7,0.6-1.1c0.2-0.6,0.6-0.8,0.7-1.4c0.1-0.3,0.3-0.6,0.5-1c0.4-0.5,0.9-0.7,1.1-1.3
			l1.2-1.3c5.1-3.1,12.5-7.6,18.7-13.8c0.1,0,0.2-0.1,0.2-0.2c0.6-1.1,1.9-2,2.7-2.9c0.1-0.1,0.1-0.3,0.2-0.5
			c-0.4,0.1-0.7,0.3-0.8,0.6c-0.2,0.2-0.3,0.3-0.4,0.3c0-0.1-0.1-0.3-0.1-0.3c-0.1-0.3-0.1-0.3,0.2-0.5c0.3,0,0.4,0,0.5-0.3
			c-0.1,0-0.1-0.1-0.2-0.1c0.1,0,0.1-0.2,0.2-0.2v0.3c0.1-0.1,0.2-0.3,0.3-0.3c0.3,0,0.2,0.4,0.3,0.6c0.4-0.2,0.7-0.7,1-1v-0.4
			c-0.1,0.2-0.2,0.3-0.3,0.4c-0.3,0.2-0.7,0.3-1.1,0.3c0.2-0.7,0.9-0.9,1.3-1.2c0.2-0.2,0.2-0.2,0.2-0.2c0.1-0.4,0.1-0.8,0.5-0.7
			c0.2,0,0.4,0,0.7-0.1c0,0,0.1-0.1,0.1-0.1c-0.1-0.1-0.1-0.1-0.2-0.1c-0.2,0.1-0.2,0.1-0.3,0.1h-0.2v-0.2c0.2-0.4,0.5-0.7,0.9-0.4
			c0.1,0,0.4-0.2,0.4-0.2c0.1-0.2,0.1-0.2,0.1-0.2c-0.1-0.4-0.2-0.1-0.3-0.1h-0.3c0-0.2,0-0.3,0.1-0.3c0.2-0.3,0.8-0.3,0.9-0.7
			l1-1.4c0.4-0.3,0.6-0.9,0.8-1.3c0.2-0.4,0.1-0.8-0.1-1.1c-0.2-0.2-0.4-0.5-0.9-0.7c-0.8-0.6-2.5-0.6-3.6-0.2
			c-2.4,1.1-4.4,2.7-6.4,4c-1,0.7-2,1.6-2.7,2.5c-2,1.8-4,3.9-6,5.9c-0.6,0.6-1.1,1.4-1.6,2v0.3h0.2c0,0.1,0,0.1-0.2,0.1
			c0-0.1,0-0.1-0.1-0.1c-0.6,0.3-0.9,0.8-1.3,1.5v0.2h0.2c-0.1,0.1-0.1,0.2-0.2,0.3c0,0.1,0,0.2-0.1,0.4l-0.1,0.1l-0.1-0.1v-0.4
			c-0.6,0.2-0.8,0.6-0.9,1.1c-0.6,0.3-0.8,0.7-0.9,1.2c-0.9,0.7-1.6,1.7-2,2.7v0.2h0.2l-0.2,0.2c0,0.2-0.1,0.3-0.3,0.4
			c0,0.2-0.1,0.3-0.3,0.5c-0.1,0.2-0.2,0.3-0.3,0c-0.4,0.2-0.6,0.4-0.6,0.9h0.3C99.3,37.8,99.2,38,99,38c0,0.2,0,0.4-0.3,0.6
			l0.1-0.1h-0.1c0,0.1-0.1,0.2-0.2,0.2v-0.1c-0.4,0.1-0.7,0.4-0.7,0.8h0.3c0,0.2,0,0.2-0.1,0.2c0,0,0,0,0,0c0,0,0-0.1-0.2-0.2
			c0,0,0,0,0,0c0,0-0.1-0.1-0.1-0.1c-0.1-0.1-0.4-0.1-0.4-0.1c-0.6-0.1-1.1-0.1-1.6,0.3c-0.4,0.2-1,0.5-1.5,0.8
			c-1.6,0.9-3.1,1.8-4.5,3c-1,0.7-1.9,1.4-2.9,2.1c-0.8,0.6-1.4,1.1-2.2,1.6c-1.4,0.9-3,1.8-4.6,2.3c-0.3,0.1-0.7,0.2-1.1,0.2
			c-0.1,0.1-0.3,0-0.4-0.2c0,0,0.1-0.2,0.1-0.3c0.6-0.8,1.1-1.6,1.7-2.5c0.3-0.6,0.7-1.2,1.1-1.8c0.2-0.2,0.3-0.3,0.6-0.2
			c0.2,0.1,0.4,0.1,0.6,0.1c0.2,0,0.3-0.1,0.5-0.3c0.4-0.9,1.2-1.5,1.8-2.3c0.7-0.8,0.9-1.9,0.8-3c0-0.4-0.6-0.3-0.3-0.8v-0.1
			c-0.6,0-1-0.1-1.3-0.7c-0.1-0.1-0.3,0-0.4,0c-0.9-0.1-1.8,0.2-2.7,0.7c-0.5,0.2-1.1,0.6-1.6,0.9c-0.7,0.3-1.2,0.4-1.6,0.9
			c-0.4,0.5-0.8,0.7-1.3,0.9c-0.6,0.2-1.2,0.4-1.6,0.9c-0.1,0.1-0.2,0.2-0.3,0.3c-0.8,0.2-1.2,0.6-1.7,0.9l-4.9,4
			c-0.3,0.3-0.4,0.4-0.6,0.7c-0.4,0.2-0.7,0.3-0.8,0.7l-2.6,2.3c-0.4,0.6-1.1,0.9-1.7,1.3L62,52.2c-0.1-0.2-0.1-0.2-0.1-0.3
			c0.2-0.6,0.6-1.3,0.7-2c0.2-0.3,0.2-0.7,0.2-1c0.1-0.4,0.7-0.6,0.4-1.1c0.5-0.5,0.7-1.3,1.2-2c0.2-0.2,0.3-0.5,0.4-0.7
			c0-0.1-0.1-0.3-0.2-0.3c-0.1,0-0.1,0.1-0.2,0.3c0-0.2-0.1-0.3-0.1-0.3h-0.2v0.3c0,0.2,0.1,0.4,0.1,0.4c-0.1,0-0.2,0.1-0.4,0.1
			c-0.1,0.6-0.5,1-0.8,1.5v-0.8h-0.3c0,0.2,0,0.4-0.2,0.6c0,0.3,0,0.4-0.3,0.6c0,0.2,0,0.4-0.3,0.5c0,0.2,0.2,0.6-0.4,0.4
			c0,0.1-0.1,0.3-0.1,0.5c0.2,0.1,0.2,0.3,0.2,0.6h0.2c0-0.2,0-0.4,0.3-0.6v-0.1c0-0.2,0.1-0.4,0.3-0.4c0,0.2,0,0.4-0.3,0.6
			c0,0.2,0,0.6-0.2,0.6c-0.2,0.2-0.2,0.4-0.2,0.6c0,0-0.1,0-0.1,0.1c-0.1-0.1-0.2-0.1-0.2-0.1c0-0.2,0-0.4-0.1-0.6h-0.2
			c0,0,0,0.1-0.1,0.2c0,0.1,0,0.2-0.2,0.2c0,0-0.1-0.1-0.1-0.2v-0.2c-0.4,0.2-0.3,0.4-0.4,0.8c0.1,0.1,0.2,0.1,0.2,0.1v0.2
			c-0.1,0-0.1-0.1-0.2-0.1v-0.3c-0.1,0.1-0.2,0.1-0.2,0.1c-0.3,1.1-0.6,2-1.1,3.1C59,54,59,54.6,59.3,55c0.3,0.5,0.7,1.1,1.3,1.2
			c0.3,0,0.5,0,0.6-0.1c0.4-0.3,0.9-0.7,1.3-1c0.2-0.7,0.9-0.7,1.2-1.1c1.5-1.3,3-2.6,4.3-4c0.7-0.9,1.6-1.6,2.5-2.3
			c1.7-1.2,3.1-2.5,4.8-3.7c0.2-0.2,0.3-0.3,0.4-0.5h-0.5c0.1-0.3,0.4-0.3,0.6-0.3c0.1-0.1,0.2-0.1,0.3-0.3v0.3
			c0.9-0.3,1.7-0.7,2.5-1.3c0.1-0.1,0.2-0.2,0.3-0.4h-0.5c0-0.1,0-0.1-0.1-0.2c-0.6-0.1-1.1,0.2-1.4,0.7c0.1,0.2,0.2,0.2,0.2,0.2
			c0,0-0.1,0-0.2,0.2V42c-0.2,0-0.3,0.2-0.6,0.4c-0.1,0-0.2,0.1-0.3,0.2c-0.2,0-0.4,0.1-0.6,0.2c-0.7,0.4-1.4,0.9-1.9,1.4
			c-0.1,0-0.2,0.2-0.3,0.4c-0.6,0-0.9,0.6-1.4,0.8c-0.6,0.5-1.2,0.9-1.8,1.4c-1.4,1.1-2.6,2.3-4.1,3.6c-0.2,0.1-0.3,0.3-0.7,0.3
			c0.4-0.7,0.9-1.2,1.5-1.7c1.4-1.3,2.9-2.5,4.4-3.7c0.8-0.7,1.7-1.4,2.5-1.9c0.8-0.7,1.6-1.3,2.5-1.6c1.4-0.8,2.6-1.8,4.2-2.4
			c0.7-0.2,1.3-0.7,2-0.9c0.1,0,0.2,0,0.3,0.2l-0.1,0.2c-0.4,0.2-0.8,0.4-1.1,0.6c-0.3,0.1-0.4,0.2-0.4,0.4h0.6v0.4
			c0.2,0.1,0.3,0.2,0.2,0.3c-0.2,0.4-0.7,0.7-0.8,1.1c-0.2,0.7-0.4,1.1-0.8,1.7c-1.1,1.6-2.3,3.2-3.5,5c-0.1,0.3-0.3,0.5-0.4,0.7
			c-0.5,1.3,0.4,2.6,1.4,2.8c1.9,0.2,3.7-0.2,5.4-1.1c0.5-0.3,0.9-0.6,1.5-0.8c0.8-0.4,1.7-1.3,2.7-1.7c0.9-0.9,1.8-1.5,2.8-2.2
			c0.8-0.6,1.4-1.2,2.4-1.6c0.1-0.1,0.4-0.3,0.6-0.5c0.9-0.8,2-1.4,3-2.1l0.8-0.3c0,0.1,0,0.1-0.1,0.2h0.2c0,0.2,0,0.4-0.2,0.7
			c-0.1,0.2-0.2,0.2-0.2,0l-0.2-0.2c0,0,0,0.2,0.1,0.2c-0.3,0.1-0.3,0.3-0.3,0.4c-0.3,0.2-0.6,0.4-0.5,0.9h0.3
			c0,0.2-0.1,0.4-0.3,0.6c-0.1,0.2-0.2,0.2-0.3,0c-0.4,0.4-0.6,1.1-0.8,1.6c-0.4,0.6-0.7,1.5-0.8,2.2c-0.1,0.6-0.1,1.2,0,1.6
			c0.8,2.3,2.2,3.7,4.9,4c0.8,0,1.4-0.1,2.1-0.2c0.7,0,1.2-0.3,1.8-0.6c0.5-0.2,1.3-0.6,1.8-0.9c0.8-0.4,1.7-0.7,2.5-1.3
			c0.5-0.3,1.2-0.8,1.6-1.2c0.5-0.2,0.9-0.5,1.4-0.9c0.2-0.2,0.3-0.3,0.6-0.6c0.4-0.2,0.9-0.4,1.2-0.7c0.5-0.6,0.9-0.9,1.5-1.1
			c0.3-0.2,0.6-0.4,0.3-0.7c0-0.2,0.2-0.2,0.2-0.3c0.2,0.2,0.6,0.3,1.1-0.1c0.2-0.2,0.3-0.3,0.6-0.4l0.3-0.2c-0.2,0.5-0.3,1-0.5,1.6
			c-0.3,0.5-0.3,1.1-0.3,1.5c0,1.7,1.2,3.5,3.5,3.7c1.3,0,2.5-0.3,3.6-0.9c1.7-0.9,3-2.2,4.6-3.2c0.1-0.1,0.1-0.2,0.2-0.3l2-2.1
			c1-1.5,0.9-1.2,2.6-1.2c1.1,0,2.1,0,3-0.1c0.7-0.1,1.5-0.2,2.1-0.2c0.3,0,0.6-0.1,0.7-0.4c0,0,1.1-0.3,1.9-0.5
			c-0.4,0.6-0.7,1.2-1,1.8l-0.4,0.7c-0.2,1-0.2,1.2,0,2.5c0.2,0.7,0.5,1.4,1.2,1.9c0.4,0.4,0.8,0.7,1.5,0.8c0.9,0.3,1.9,0.7,3,0.3
			c0.2-0.3,0.4-0.3,0.8-0.4c2-0.3,3.8-0.9,5.5-1.9c1.2-0.6,2.4-1.1,3.6-1.6c1.2-0.7,2.6-0.9,3.7-1.7c0.1-0.1,0.3-0.1,0.4-0.2
			c1.3-0.6,2.7-1.1,4.1-1.7c0.9-0.4,1.7-0.8,2.7-0.9c0.1,0,0.3-0.1,0.3-0.2C164.6,41.4,164.4,40.8,164,40.6z M115.5,29.6
			c0.2-0.2,0.5-0.5,0.8-0.7l0.2,0.3C116.4,29.6,116,29.8,115.5,29.6z M118,27.6c0-0.1-0.1-0.1-0.3-0.2c0-0.4,0.3-0.4,0.6-0.6
			c0.1,0.2,0.2,0.2,0.3,0.3C118.6,27.5,118.3,27.5,118,27.6z M119.2,26.5c-0.1,0.1-0.2,0.3-0.3,0.3v-0.3h-0.2
			c0.1-0.1,0.1-0.2,0.2-0.2v0.2H119.2c-0.1-0.1-0.2-0.2-0.3-0.3v-0.6l-0.1-0.2h0.1v0.2l0.9-0.5c0.1,0.1,0.2,0.2,0.2,0.2
			C119.8,25.7,119.5,26.1,119.2,26.5z M107.4,28.3c0.1,0.3,0,0.4-0.3,0.6C107,28.6,107.1,28.4,107.4,28.3z M106.7,29.2v0.7
			c-0.2,0.1-0.6,0.2-0.8,0.4C105.9,29.6,106.4,29.4,106.7,29.2z M105.4,30.9c0,0.4-0.1,0.4-0.5,0.4C104.8,31,105,31,105.4,30.9z
			 M103.7,32.8c0.1-0.3,0.2-0.5,0.6-0.6C104.1,32.7,104.1,32.7,103.7,32.8v0.6h-0.3C103.4,33.2,103.5,33,103.7,32.8z M104.7,33.9
			c0.3-0.4,0.7-0.6,0.7-1.1c0-0.1,0.1-0.2,0.2-0.4c0.2-0.2,0.3-0.5,0.5-0.8c0.3-0.2,0.4-0.5,0.7-0.7c0.2-0.3,0.2-0.4,0.4-0.7
			c0.1-0.3,0.4-0.4,0.6-0.8c0.4-0.4,0.9-0.7,0.9-1.3c0.3-0.4,0.9-1,1.2-1.4c0.4-0.4,0.7-0.8,1.1-1.3c0.1-0.2,0.3-0.3,0.4-0.4
			c0.8-0.8,1.7-1.4,2.2-2.3c0.9-0.7,1.6-1.8,2.5-2.3c0.9-0.7,1.6-1.6,2.6-2c0.2,0,0.3-0.3,0.5-0.4c0.9-0.8,2-1.3,3-1.9
			c0.8-0.4,1.6-0.9,2.1-1.6c0.3-0.3,0.9-0.3,1.1,0.2c0,0.2,0.2,0.4,0,0.6c-0.2,0.5-0.4,1-0.8,1.6c-0.4,0.8-0.6,1.4-1.2,2.1
			c-1.2,1.4-2.3,2.8-3.5,4.2c-1.7,2-4.2,3.8-6,5.9c-1.9,2-4,3.7-6.1,5.4c-2.3,1.7-3.6,2.5-5.4,3.6c-0.3,0.2-0.8,1-1.3,0.8
			c0-0.4,0.2-0.4,0.3-0.8c0.4-0.3,0.4-0.9,0.8-1.3C103.1,35.8,103.9,34.8,104.7,33.9z M102.3,34.8c0.1-0.4,0.3-0.8,0.7-1.1
			C103,34.2,102.7,34.6,102.3,34.8c0,0.5-0.2,0.7-0.7,0.8C101.6,35.3,101.8,35.1,102.3,34.8z M101.6,35.7c0,0.4-0.2,0.7-0.4,0.8
			C101.1,36.2,101.3,35.8,101.6,35.7z M100.6,37.4c-0.1-0.3,0-0.4,0.2-0.6C100.8,37.1,100.8,37.3,100.6,37.4
			c-0.1,0.2-0.1,0.4-0.1,0.7c-0.1,0-0.2,0.1-0.5,0.2C99.9,37.7,100,37.6,100.6,37.4z M73.3,44.7c-0.2,0.1-0.1,0-0.1-0.1
			C73.3,44.7,73.3,44.7,73.3,44.7z M99.4,39.2v0.5c0.1,0,0.2,0.1,0.2,0.1s-0.1,0.1-0.2,0.1v-0.2c-0.2,0-0.3,0.1-0.3,0.2h-0.2
			C98.8,39.6,98.9,39.2,99.4,39.2z M97.1,42.9c0.1,0.4-0.3,0.7-0.6,0.8C96.5,43.3,96.7,42.9,97.1,42.9z M95.9,44.9
			c0-0.3,0-0.4,0.2-0.6v0.5c0.4,0.1,0.4,0.3,0,0.6c0,0.2,0,0.2-0.1,0.2c0-0.1-0.2-0.1-0.2-0.2c-0.2,0.2-0.3,0.2-0.6,0.2
			C95.4,45.3,95.5,44.9,95.9,44.9z M94.8,47.7h-0.2c0-0.2-0.1-0.4,0.3-0.5v-0.6c-0.1-0.1,0-0.2,0.2-0.2v0.8h0.2
			c0.1,0.1,0.2,0.1,0.3,0.2c-0.1,0-0.1,0.1-0.2,0.2c-0.1,0.1-0.2,0.1-0.3,0.2c0,0-0.2,0.2-0.2,0.2C94.9,47.8,94.9,47.7,94.8,47.7z
			 M113.7,44.7c-0.2,0.1-0.2,0.2-0.2,0.4c-0.3,0-0.4,0.1-0.5,0.1c-1.1,1.1-2.5,1.6-3.6,2.5c-1.8,0.9-3.2,2.2-5.1,2.8h-0.4
			c0.4-0.6,0.9-0.8,1.4-0.9c0.3-0.1,0.6-0.2,0.8-0.4c1.2-0.8,2.5-1.6,3.7-2.5c1.2-0.9,2.6-1.7,4-2.6c0.6-0.3,1.1-0.7,1.8-1.1
			c0.3-0.2,0.7-0.5,1-0.7c-0.2,0.3-0.4,0.6-0.5,0.9C115.2,43.6,114.5,44.2,113.7,44.7z M126.3,43.5c-0.6,0.5-0.9,0.9-1.4,1.3
			c-1.6,1.5-3.4,2.7-5.5,3.7c-0.6,0.2-1.2,0.4-1.6,0.3H117c-0.3-0.1-0.7-0.4-0.5-0.7c0.4-0.8,0.7-2,1.2-2.8c0.6-1.1,1.1-2.1,1.6-3.1
			c0-0.2,0.1-0.3,0.2-0.5c0.1,0,0.1-0.1,0.2-0.1c0.4-0.4,1-0.9,1.8-0.8c0,0,0.2-0.1,0.3-0.2c1.1,1.2,2.4,2,4.1,2.3
			c0.1,0.2,0.2,0.2,0.3,0.2C126.3,43.1,126.4,43.4,126.3,43.5z M129.6,37.6c-0.1,1.1-0.5,2.1-1.1,3.2c-0.2,0.3-0.6,0.5-1.1,0.4
			c-0.9-0.2-2-0.3-3-0.7c-0.6-0.2-1.5-0.4-1.9-1c-0.1-0.2-0.3-0.3-0.4-0.5c-0.3-0.2-0.3-0.4,0-0.7l1.2-1.1c0.7-0.6,1.4-1.2,2.2-1.6
			c0.7-0.6,1.3-0.9,2.2-1.4c0.1-0.1,0.2,0,0.3,0c0.2,0.2,0.4,0.3,0.4,0.4C129.3,35.3,129.8,36.3,129.6,37.6z M148,37.3
			c1.1-0.7,2.3-1,3.5-1.1c0.3,0,0.6-0.1,0.7-0.3c0.1-0.2,0.3-0.4,0.4-0.2c0.2,0.2,0.4,0.3,0.3,0.6c0,0.3,0,0.6-0.2,0.8
			c-0.3,0.7-0.8,1.3-1.4,1.7c-1.2,0.9-2.4,1.6-3.9,2c-0.7,0.3-1.2,0.5-1.9,0.7c-0.4,0.1-1.1,0.2-1.6,0.3v-0.1c-0.3,0-0.5,0-0.7,0.1
			c-0.2,0-0.5,0.2-0.7,0c-0.1-0.2,0.3-0.5,0.3-0.6l1.5-1.5C145.4,39,146.6,38,148,37.3z"/>
	</g>
	<g>
		<g>
			<path class="st0" d="M181.4,23.2c-1.4,1.1,0.9,6.4-0.5,4.8c-4.2-4.9,1,10.6-7,14c-9.3,19-26.7,9.9-34,20.1
				c0.1,0.5,0.7,0.8,1.2,0.6c5.3-7.6,15.1-3.4,22.3-6.9c7.8-2.8,9.3-14,17.8-14.6c2.5-0.6,4.9,2,6.8,2c0.8-3,6.3,4,7.6,6
				c2.9-0.8-3.3-7.2,2.9-2.6c4.4,3.8,14.6,7,11.6-0.8c1.4-2.1,4.9-0.7,5.4-3.8c0-1.3-1.7-2.2-0.9-3.6c-1.3-3.4-8.2-1.9-11.5-3.2
				c2.8-1.3,7.8-2.2,7.8-5.9c-1.7-2.7,0.6-6.5-1.8-8.6c-6.5-1.9-6.8-6.5-13.3,0.2c1.7-3.7,5.5-7.8,0.3-10.6
				c-1.8-0.9-1.4-4.8-4.1-2.6c-7.4-0.2,1.3-3.5-6-1.6C178.6,8.4,179.3,17.5,181.4,23.2z M194.6,22c-3.6,2-5.8,9.5-9.1,9.2
				c4.7-5.8,6.3-14.6,9.2-21.1c2.4,0.9-0.5,2.7,0.3,3.9c1.3,0.2,0.9-3.6,2.2-1.8c-0.3,0.8-2.5,4.4-0.9,3.9c0.9-0.9,0.8-2.3,1.5-3.2
				C199.1,16,194.9,18.8,194.6,22z M200.4,45.5c1.8-1.1-5.6-2.9-6.7-4.2c4.4,1.6,14.9,2.3,16,6.5c-1.4,0.8-6.2-2.7-5.9-0.6
				c0.5,0.5,6.3,1.2,5.6,2.4C203.8,51.5,185.4,37.3,200.4,45.5z M213.6,37.8c1.9,3.1-5.1,0.4-4,2.3c5.5-0.9,7.7,4.4,1.1,3.2
				c-1.1,0.1,0.3,1-0.2,1.5c-5.3,0.1-11.4-3.8-17.2-4.4c4.3-1.2,8.2,0.9,12.3,1.6c1.6-1.5-5.7-1.6-6.8-2.6c1.3-0.6,7.7,1.6,6.6-0.2
				c-2.8-1-6.3,0.3-8.8-1.3c11.2,0.2,6.2-2-1-0.6C198.1,33.5,208.7,37.6,213.6,37.8z M182.3,40.4c1.2-0.6,3.6-1.7,2.5,0.5
				C184,40.7,183.2,40.5,182.3,40.4z M182.3,38.9c0.5-0.5,3.4-1.5,2.9-0.1C184.4,38.3,182,40.1,182.3,38.9z M181.4,39.7
				c0.1,0.2,0,0.3-0.2,0.4C181.4,40,181.4,39.3,181.4,39.7z M182.6,37.7c1.4-0.3,2.4-2.9,2.5-0.5C184.6,37.3,182.6,37.8,182.6,37.7z
				 M173.6,43.9c-1.5,4.4-7,9.9-11.9,11.9c-12.3,2.6,1.7-0.2,5.5-4.2C169.7,49.3,171.7,46.6,173.6,43.9z M187.1,32.6
				c2-4.2,15.9-18.3,9.9-10.9c3.1-1.8,8.1-6.3,2.7-0.6c0.2,2,2.7-2.2,4-2.4c1.8,1.4,1.1,1.9-0.6,3c-0.5,1.9,2.2-0.7,2.8-1
				c2.5,0.3,4.9,1.2,1.4,2.7c-0.7,1.6,1.8-0.1,2.3-0.4c0.1,4-0.4,4.1-3.8,5.6c-0.9-0.3-0.7,1.7,0.2,1c9-4.7,2.2,5-4,5.3
				c-5.5,0.9-1.7-0.9,1.5-2.2c0.4-2.3-8,3.2-9.2,3.9c-9.4,0.7-4.3-2.6,1.5-3.4c0.9-2.1-5.1,0.6-6.3,1.1c0.7-0.4,8.9-8,13-9.2
				c-1.1-3.4-19.5,14.7-10,4.5C191.9,26.2,186.8,36.7,187.1,32.6z M176.5,41c-0.2,0.5-0.6,0.7-1.1,1C175.7,41.6,176.1,41.3,176.5,41
				z M183.9,34.8c1.6-0.4-1.3,2.3-2.3,2.6C182.2,36.7,183.4,35.4,183.9,34.8z M183.4,34.1c-0.4,0.8-1.7,2-2.2,2.5
				C181.1,35.5,183.6,31.6,183.4,34.1z M181.8,31.9c1.3,0.7-0.5,1.8-0.9,2.8C179.4,37.7,180.9,33,181.8,31.9z M181.1,31.4
				c-1,1.4-1.7,3.8-1.8,4.8C179,34.8,179.3,29.4,181.1,31.4z M183.9,25.3c0,0.3,0.1,1-0.2,1.2C183.9,26.1,183.9,25.7,183.9,25.3z
				 M191.1,10.2c1.3-2.2,4.1-3.7,2.5,0.3c-2.5,6.1-4.5,16.9-10.2,19.4c-0.1-1.5,2.9-2.2,2.1-4.1c0.4-1.9,5.3-8.5,3.2-8.6
				c-0.9,2.1-4.8,10.4-3.4,4.8C185.5,18.8,190.3,3.8,191.1,10.2z M184.9,19.9c-0.6-3.6,0.6-11.7,4.5-11.6
				C186.8,11.6,185.8,15.8,184.9,19.9z M185.3,7.4c-0.5,1-2.4,2.4-1.8,3.5c4.5-5.4,4.6-4.4,1.1,1.5c-1.5,2.4,0.3,6.4-1.4,7.9
				c-0.7-9.6-1.6-5.2-0.8,1.1c-1.7-0.6-2.8-6.4-1.2-8.9C181.6,10.6,184.7,6.4,185.3,7.4z"/>
			<path class="st0" d="M192.4,21.3c0.2,0.9-1.6,3.2-2.5,3.1C189.8,23.6,191.5,21.3,192.4,21.3z"/>
		</g>
	</g>
	<g class="st1">
		<path d="M62.6,66.1C62.7,66.1,62.7,66.1,62.6,66.1c0.1,0,0.2,0,0.2,0.1l0.5,0.5c-0.2,0.3-0.5,0.5-0.8,0.7s-0.7,0.2-1.2,0.2
			c-0.4,0-0.8-0.1-1.1-0.2c-0.3-0.1-0.6-0.3-0.9-0.6c-0.2-0.3-0.4-0.6-0.5-0.9s-0.2-0.7-0.2-1.1c0-0.4,0.1-0.8,0.2-1.2
			s0.3-0.7,0.6-0.9c0.3-0.3,0.6-0.5,0.9-0.6c0.4-0.1,0.8-0.2,1.2-0.2c0.2,0,0.4,0,0.6,0.1c0.2,0,0.4,0.1,0.5,0.2
			c0.2,0.1,0.3,0.1,0.4,0.2c0.1,0.1,0.3,0.2,0.4,0.3l-0.4,0.6c0,0-0.1,0.1-0.1,0.1c0,0-0.1,0-0.2,0c0,0-0.1,0-0.1,0
			c0,0-0.1,0-0.1-0.1s-0.1-0.1-0.2-0.1c-0.1,0-0.1-0.1-0.2-0.1s-0.2-0.1-0.3-0.1s-0.2,0-0.4,0c-0.2,0-0.5,0-0.6,0.1
			c-0.2,0.1-0.4,0.2-0.5,0.4c-0.1,0.2-0.2,0.3-0.3,0.6c-0.1,0.2-0.1,0.5-0.1,0.7c0,0.3,0,0.5,0.1,0.8c0.1,0.2,0.2,0.4,0.3,0.6
			c0.1,0.2,0.3,0.3,0.5,0.3c0.2,0.1,0.4,0.1,0.6,0.1c0.1,0,0.2,0,0.3,0c0.1,0,0.2,0,0.3-0.1s0.2-0.1,0.2-0.1s0.2-0.1,0.2-0.2
			c0,0,0.1,0,0.1-0.1C62.5,66.1,62.6,66.1,62.6,66.1z"/>
		<path d="M73.4,64.7c0,0.4-0.1,0.8-0.2,1.1c-0.1,0.3-0.3,0.7-0.6,0.9c-0.3,0.3-0.6,0.5-0.9,0.6s-0.8,0.2-1.2,0.2
			c-0.4,0-0.8-0.1-1.2-0.2s-0.7-0.3-0.9-0.6c-0.3-0.3-0.5-0.6-0.6-0.9c-0.1-0.3-0.2-0.7-0.2-1.1c0-0.4,0.1-0.8,0.2-1.1
			c0.1-0.3,0.3-0.7,0.6-0.9c0.3-0.3,0.6-0.5,0.9-0.6s0.8-0.2,1.2-0.2c0.4,0,0.8,0.1,1.2,0.2c0.4,0.1,0.7,0.4,0.9,0.6
			c0.3,0.3,0.5,0.6,0.6,0.9S73.4,64.3,73.4,64.7z M72.1,64.7c0-0.3,0-0.5-0.1-0.7c-0.1-0.2-0.2-0.4-0.3-0.6
			c-0.1-0.2-0.3-0.3-0.5-0.4c-0.2-0.1-0.4-0.1-0.7-0.1c-0.3,0-0.5,0-0.7,0.1c-0.2,0.1-0.4,0.2-0.5,0.4c-0.1,0.2-0.2,0.3-0.3,0.6
			c-0.1,0.2-0.1,0.5-0.1,0.7c0,0.3,0,0.5,0.1,0.8c0.1,0.2,0.2,0.4,0.3,0.6c0.1,0.2,0.3,0.3,0.5,0.4c0.2,0.1,0.4,0.1,0.7,0.1
			c0.2,0,0.5,0,0.7-0.1s0.4-0.2,0.5-0.4s0.2-0.3,0.3-0.6C72.1,65.2,72.1,65,72.1,64.7z"/>
		<path d="M81.2,63c0,0.1-0.1,0.1-0.1,0.1c0,0-0.1,0-0.2,0c-0.1,0-0.1,0-0.2-0.1c-0.1,0-0.1-0.1-0.2-0.1c-0.1,0-0.2-0.1-0.3-0.1
			c-0.1,0-0.2-0.1-0.4-0.1c-0.2,0-0.4,0.1-0.5,0.2c-0.1,0.1-0.2,0.2-0.2,0.4c0,0.1,0,0.2,0.1,0.3c0.1,0.1,0.2,0.1,0.3,0.2
			c0.1,0.1,0.3,0.1,0.4,0.1s0.3,0.1,0.5,0.2c0.2,0.1,0.3,0.1,0.5,0.2c0.1,0.1,0.3,0.2,0.4,0.3c0.1,0.1,0.2,0.3,0.3,0.4
			c0.1,0.2,0.1,0.4,0.1,0.6c0,0.3,0,0.5-0.1,0.7c-0.1,0.2-0.2,0.4-0.4,0.6c-0.2,0.2-0.4,0.3-0.6,0.4c-0.3,0.1-0.5,0.1-0.9,0.1
			c-0.2,0-0.4,0-0.5-0.1c-0.2,0-0.4-0.1-0.5-0.2c-0.2-0.1-0.3-0.1-0.5-0.2c-0.1-0.1-0.3-0.2-0.4-0.3l0.4-0.6c0,0,0.1-0.1,0.1-0.1
			c0.1,0,0.1,0,0.2,0c0.1,0,0.2,0,0.2,0.1c0.1,0,0.2,0.1,0.3,0.2c0.1,0.1,0.2,0.1,0.3,0.2s0.3,0.1,0.5,0.1c0.2,0,0.4-0.1,0.6-0.2
			c0.1-0.1,0.2-0.3,0.2-0.5c0-0.1,0-0.2-0.1-0.3c-0.1-0.1-0.2-0.2-0.3-0.2c-0.1-0.1-0.2-0.1-0.4-0.1s-0.3-0.1-0.5-0.1
			c-0.2,0-0.3-0.1-0.5-0.2c-0.1-0.1-0.3-0.2-0.4-0.3c-0.1-0.1-0.2-0.3-0.3-0.4c-0.1-0.2-0.1-0.4-0.1-0.7c0-0.2,0-0.4,0.1-0.6
			c0.1-0.2,0.2-0.4,0.4-0.5c0.2-0.2,0.4-0.3,0.6-0.4c0.2-0.1,0.5-0.1,0.8-0.1c0.2,0,0.3,0,0.5,0c0.2,0,0.3,0.1,0.5,0.1
			c0.1,0.1,0.3,0.1,0.4,0.2c0.1,0.1,0.2,0.2,0.3,0.2L81.2,63z"/>
		<path d="M89.2,65.2c0,0.1,0.1,0.2,0.1,0.3c0-0.1,0.1-0.2,0.1-0.3c0-0.1,0.1-0.2,0.2-0.3l1.4-2.8c0,0,0.1-0.1,0.1-0.1
			c0,0,0.1,0,0.1-0.1c0,0,0.1,0,0.1,0c0,0,0.1,0,0.1,0h1v5.6h-1.1v-3.2c0-0.2,0-0.3,0-0.5l-1.5,2.9c0,0.1-0.1,0.2-0.2,0.2
			c-0.1,0-0.2,0.1-0.3,0.1h-0.2c-0.1,0-0.2,0-0.3-0.1c-0.1,0-0.1-0.1-0.2-0.2l-1.5-2.9c0,0.1,0,0.2,0,0.3c0,0.1,0,0.2,0,0.2v3.2
			h-1.1v-5.6h1c0.1,0,0.1,0,0.1,0s0.1,0,0.1,0s0.1,0,0.1,0.1c0,0,0.1,0.1,0.1,0.1l1.4,2.9C89.2,65,89.2,65.1,89.2,65.2z"/>
		<path d="M101.1,61.9v1h-2.3v1.3h1.8v1h-1.8v1.3h2.3v1h-3.6v-5.6H101.1z"/>
		<path d="M109.9,61.9v1h-1.6v4.6H107v-4.6h-1.6v-1H109.9z"/>
		<path d="M115.8,67.5h-1.3v-5.6h1.3V67.5z"/>
		<path d="M124.6,66.1C124.7,66.1,124.7,66.1,124.6,66.1c0.1,0,0.2,0,0.2,0.1l0.5,0.5c-0.2,0.3-0.5,0.5-0.8,0.7
			c-0.3,0.2-0.7,0.2-1.2,0.2c-0.4,0-0.8-0.1-1.1-0.2c-0.3-0.1-0.6-0.3-0.9-0.6c-0.2-0.3-0.4-0.6-0.5-0.9s-0.2-0.7-0.2-1.1
			c0-0.4,0.1-0.8,0.2-1.2c0.1-0.4,0.3-0.7,0.6-0.9c0.3-0.3,0.6-0.5,0.9-0.6c0.4-0.1,0.8-0.2,1.2-0.2c0.2,0,0.4,0,0.6,0.1
			c0.2,0,0.4,0.1,0.5,0.2s0.3,0.1,0.4,0.2c0.1,0.1,0.3,0.2,0.4,0.3l-0.4,0.6c0,0-0.1,0.1-0.1,0.1c0,0-0.1,0-0.2,0c0,0-0.1,0-0.1,0
			c0,0-0.1,0-0.1-0.1c0,0-0.1-0.1-0.2-0.1c-0.1,0-0.1-0.1-0.2-0.1c-0.1,0-0.2-0.1-0.3-0.1s-0.2,0-0.4,0c-0.2,0-0.5,0-0.6,0.1
			c-0.2,0.1-0.4,0.2-0.5,0.4c-0.1,0.2-0.2,0.3-0.3,0.6c-0.1,0.2-0.1,0.5-0.1,0.7c0,0.3,0,0.5,0.1,0.8c0.1,0.2,0.2,0.4,0.3,0.6
			c0.1,0.2,0.3,0.3,0.5,0.3c0.2,0.1,0.4,0.1,0.6,0.1c0.1,0,0.2,0,0.3,0c0.1,0,0.2,0,0.3-0.1c0.1,0,0.2-0.1,0.2-0.1
			c0.1,0,0.2-0.1,0.2-0.2c0,0,0.1,0,0.1-0.1S124.6,66.1,124.6,66.1z"/>
	</g>
</g>
</svg>
