<?xml version="1.0" encoding="utf-8"?>
<!-- Generator: Adobe Illustrator 24.1.2, SVG Export Plug-In . SVG Version: 6.00 Build 0)  -->
<svg version="1.1" id="Capa_2" xmlns="http://www.w3.org/2000/svg" xmlns:xlink="http://www.w3.org/1999/xlink" x="0px" y="0px"
	 viewBox="0 0 152.7 74" style="enable-background:new 0 0 152.7 74;" xml:space="preserve">
<g>
	<path d="M45.1,33.2c0.5,0,0.8-0.2,1.1-0.7C45.5,32.5,45.3,32.8,45.1,33.2z"/>
	<path d="M39.4,35.5h0.5l0.4-0.5c0.4-0.1,0.7-0.5,0.8-0.7h-0.4C40.2,34.5,39.8,34.9,39.4,35.5z"/>
	<path d="M51.9,27.1c0.3-0.3,0.7-0.5,1-0.7c0.2-0.1,0.3-0.1,0.4-0.4c-0.4,0-0.6,0.1-1,0.3c-1.1,0.7-2.2,1.6-3.4,2.1
		c0,0.2-0.2,0.3-0.2,0.3c-0.1,0.1-0.1,0.2,0,0.2c0,0.1,0.2,0.1,0.2,0.2c0,0,0.1-0.1,0.2-0.1c0.4-0.2,0.7-0.6,0.9-0.6
		c0.5-0.1,0.8-0.2,1-0.6C51.4,27.5,51.7,27.4,51.9,27.1z"/>
	<path d="M45.6,31.4c0.1-0.2,0.2-0.2,0.2-0.4c0.1,0,0.1-0.1,0-0.2c0-0.2-0.1-0.2-0.2-0.1c-0.3,0.2-0.5,0.5-0.9,0.7
		c-0.3,0.2-0.7,0.6-0.9,1h0.4L45.6,31.4z"/>
	<path d="M44.2,33.8c-0.1,0.1-0.1,0.1,0,0.2h0.3c0.3-0.3,0.5-0.5,0.6-0.7C44.6,33.2,44.4,33.4,44.2,33.8z"/>
	<path d="M42.9,33c-0.1,0.1-0.1,0.2,0,0.2h0.3c0.2-0.2,0.6-0.4,0.6-0.7C43.4,32.4,43.1,32.7,42.9,33z"/>
	<path d="M41.2,35.9h0.2c0.2,0,0.3,0.1,0.4,0c0.2-0.2,0.2-0.3,0.3-0.6H42C41.7,35.3,41.5,35.7,41.2,35.9z"/>
	<path d="M54.3,25.3c-0.4-0.1-0.6,0.2-0.9,0.3c-0.1,0.1-0.1,0.4-0.1,0.5l0.6-0.3C54.1,25.6,54.2,25.5,54.3,25.3z"/>
	<path d="M40.1,36.9c-0.2,0.2-0.4,0.2-0.6,0.3c-0.4,0.5-0.9,0.8-1.5,1c-0.1,0-0.1,0.3-0.4,0.5c0.3,0,0.3,0.1,0.3,0.2
		c0.4-0.2,0.7-0.4,1.2-0.6c0.4-0.2,0.8-0.6,1.1-1C40.2,37.1,40.1,37,40.1,36.9L40.1,36.9z"/>
	<path d="M33.8,41.1c-0.4,0.2-0.6,0.4-0.7,0.8c0.5,0,0.7-0.2,1.2-0.5c0.5-0.2,0.8-0.5,1.2-0.9c0.8-0.5,1.5-1.1,2.4-1.6
		c0.1,0,0.1-0.1,0.1-0.1c-0.2-0.1-0.3-0.2-0.3-0.3c-1.1,0.8-2.2,1.3-3.1,2.2L33.8,41.1z"/>
	<path d="M38.5,35.8c-0.6,0.4-1.2,0.9-1.9,1.3c-0.1,0.1,0,0.4-0.1,0.4c-0.1,0-0.2,0-0.4,0.1c-0.3,0.3-0.7,0.4-1.2,0.8
		c-0.5,0.3-1.2,0.5-1.4,1.1h0.3c0.8-0.3,1.4-1,2.2-1.4l0.3-0.2l0.3-0.4c0.2,0.1,0.4,0,0.6-0.3c0.7-0.6,1.4-1.1,2.2-1.5v-0.3
		C39.1,35.4,38.8,35.7,38.5,35.8z"/>
	<path d="M39.9,35.8h-0.5C39.7,36.2,39.7,36.2,39.9,35.8z"/>
	<path d="M22.7,47.6c-0.1,0-0.1,0-0.2-0.1C22.5,47.6,22.5,47.8,22.7,47.6z"/>
	<path d="M31.8,40.6l-1.2,0.7c-0.4,0.2-0.7,0.7-1.2,1c-0.4,0.2-0.8,0.5-1.2,0.7c-1.1,0.7-2.2,1.7-3.4,2.2l-0.4,0.4
		c-0.5,0.4-1.1,0.6-1.6,0.9c-0.8,0.4-1.6,0.9-2.4,1.1c-0.5,0.4-1.2,0.7-1.7,0.8c-0.9,0.4-1.7,0.6-2.4,0.8c-0.5,0.2-1.2,0-1.6,0.3
		c-0.2,0.2-0.6,0.1-0.7,0c-0.6-0.1-1.2-0.3-1.7-0.4c-0.4-0.1-0.6-0.3-0.8-0.4c-0.2-0.1-0.3-0.3-0.3-0.4c0-0.6-0.4-1.3-0.4-1.9v-2.6
		c0-0.2,0-0.3,0.2-0.5c0.2-0.3,0.2-0.7,0.2-1.1c0.1-0.4,0.2-0.8,0.2-1.1c0.1-0.4,0.3-0.7,0.3-1.1c-0.1-0.6,0.1-1.2,0.6-1.5
		c0.3-0.2,0.5-0.6,0.5-0.9l0.4-1.3c0.2-0.1,0.2-0.2,0.2-0.3c-0.1-0.4,0.2-0.8,0.5-1c0.5-0.4,0.7-0.9,1.1-1.3
		c-0.1-0.5,0.3-0.7,0.5-0.9c0.4-0.8,1.2-1.3,1.1-2.3c0-0.1,0.2-0.1,0.3-0.3c0.2-0.1,0.2-0.5,0.5-0.5l0.5-0.4
		c0.5-0.7,1.3-1.4,1.5-2.2c0.4-0.9,1.1-1.4,1.7-2.2c0.2-0.4,0.7-0.5,0.7-1.1c0.4-0.4,0.6-0.7,1.1-0.9c0.2-0.3,0.4-0.4,0.6-0.7
		c0.4-0.6,0.8-1.2,1.4-1.5l0.5-0.4l0.5-0.7c0.3-0.4,0.5-0.6,0.6-0.8c0.3-0.2,0.7-0.4,0.8-0.7c0.4-0.5,1-1,1.4-1.6
		c0.3-0.1,0.4-0.4,0.7-0.5c0.7-0.5,1.3-1.2,2-1.7c0.4-0.2,0.8-0.5,1.1-0.9c0.4-0.5,0.9-0.9,1.4-1.4c0.2-0.1,0.4-0.2,0.6-0.2
		c0.2-0.1,0.4-0.1,0.5-0.3c0.3-0.4,0.7-0.5,1.1-0.7l0.8-0.5c0.6-0.5,1.2-0.8,1.8-1.2l3.2-1.9c0.4-0.2,0.9-0.5,1.4-0.7
		c0.4-0.2,1-0.3,1.3-0.5c0.4-0.5,0.9-0.5,1.5-0.8c0.4-0.3,1.1-0.2,1.5-0.5c0.9-0.5,2-0.6,2.9-0.8c0.7-0.1,1.5-0.4,2.3-0.2
		c0.2,0,0.4,0,0.4-0.1c0.4-0.3,0.9-0.2,1.3-0.4l1.3,0.6C56.5,5,57,5.9,57.1,7c0,0.4-0.1,0.9,0,1.5c0.2,1.1-0.5,2.1-1.1,3
		c-0.6,1-1.4,1.9-2.3,2.9c-0.1,0.2-0.2,0.3-0.4,0.5l-0.6,1c0,0,0.1,0.3,0.2,0.3c0.3,0.1,0.5,0.3,0.8,0.2c0.8-0.2,1.5-0.4,2.1-1.1
		l1.9-1.9c0.7-0.7,1.1-1.4,1.5-2.2c0.1-0.1,0.1-0.4,0.1-0.5c0.3-0.5-0.1-0.9,0.3-1.4c0.1-0.1,0-0.1,0-0.3c-0.2-0.3-0.2-0.6-0.2-1
		c0-0.5-0.5-0.6-0.6-0.9V6.8c-0.5-1.1-1.2-2.1-2.2-2.8c-0.3-0.3-0.7-0.4-1.1-0.7c-0.4-0.2-0.9-0.2-1.1-0.5c0-0.1-0.2-0.1-0.2-0.1
		l-1.5-0.1c-0.3,0.1-0.5-0.2-0.7,0c-0.2,0.1-0.5,0.1-0.9,0.1c-0.2,0.1-0.5,0-0.7,0.1L49.5,3c-0.5,0.1-0.9,0.1-1.4,0.1
		c-0.2,0-0.3,0.1-0.4,0.1c-0.5,0.4-1.2,0.4-1.6,0.7L43,5c-0.7,0.3-1.3,0.7-2,0.9c-0.4,0.4-0.9,0.4-1.3,0.6c-0.5,0.2-0.8,0.5-1.3,0.7
		c-0.5-0.1-0.8,0.4-1.2,0.6c-1.3,0.6-2.6,1.3-3.6,2.3c-0.2,0-0.2,0.1-0.2,0.1c-0.5,0-0.7,0.4-1.1,0.8l-0.5,0.3
		c-1.4,0.7-2.6,1.6-3.6,2.6l-0.8,0.7c-0.5,0.5-1,0.8-1.4,1.3c-0.2,0.4-0.5,0.6-0.8,0.8c-0.3,0.3-0.4,0.7-0.8,0.8
		c-0.2,0.1-0.4,0.3-0.4,0.5c-0.2,0.3-0.6,0.6-0.8,0.9c-0.6,0.6-1.3,1.1-1.7,1.8L20.3,22c-0.4,0.5-0.7,0.9-1.1,1.4
		c-0.7,0.7-1.3,1.3-1.6,2.2c-0.6,0.5-0.9,1.3-1.3,1.8c-0.2,0-0.2,0.1-0.2,0.2c0.3,0.4-0.1,0.5-0.2,0.5c-0.4,0-0.5,0.2-0.7,0.5
		c-0.2,0.3-0.2,0.7-0.6,0.7c-0.1,0.2-0.1,0.2-0.2,0.2c-0.2,0.2-0.3,0.4-0.3,0.4l-0.1,0.2v0.1l-0.6,1.1c-0.1,0.1-0.1,0.3-0.3,0.3
		L13,31.9c0,0.2,0,0.3-0.2,0.4c0,0,0,0.1-0.1,0.1l-0.3,0.4c0.2,0.2,0.1,0.2,0,0.2l-0.3,0.4c0,0.1-0.1,0.2-0.2,0.2c0.1,0,0,0.2,0,0.2
		l-0.5,0.6c0,0.1,0.1,0.2,0,0.2l-0.8,2.2c-0.2,0.4-0.2,0.9-0.4,1.3c-0.5,0.8-0.8,1.8-0.9,2.6c-0.2,1.1-0.5,2.1-0.6,3
		c-0.2,1.1,0.1,1.8,0.5,3c0.1,0.4,0.3,0.7,0.5,1.1c0.1,0.5,0.4,0.9,0.5,1.3c0.5,1.2,1.3,2.2,2.7,2.5c0.2,0,0.4,0.2,0.6,0.3
		c0.1,0,0.3,0.2,0.4,0.2c0.6,0,1.1-0.1,1.7,0.2H16c0.2-0.1,0.5-0.2,0.7-0.2c0.7,0,1.4-0.4,2.1-0.3c0,0,0.1-0.1,0.3-0.1l2.3-1.1
		c0.5-0.2,0.9-0.4,1.2-0.6c0.3-0.4,0.9-0.4,1.2-0.8c0.2-0.4,0.8-0.5,1.1-0.7c0.9-0.6,1.7-1.3,2.7-1.7l0.3-0.3
		c-0.2-0.2-0.3-0.2-0.4-0.2c0,0-0.1,0-0.1-0.1l0.1-0.1c0.2,0,0.4,0.1,0.4,0.3l1.3-0.8c0.7-0.4,0.8-0.6,1.2-1.5
		c0-0.1,0.2-0.3,0.5-0.4c0,0,0.2,0.2,0.2,0.3H31l0.1-0.2c0.2-0.2,0.6-0.1,0.8-0.2c0.2-0.3,0.3-0.5,0.6-0.5c0.4-0.2,0.2-0.5,0.2-0.8
		c0.2-0.1,0.2-0.2,0.3-0.4c-0.1,0-0.3,0-0.3,0.1c-0.7,0.4-1.3,0.9-1.8,1.2c-0.5,0.3-0.8,0.6-1.2,0.9c-0.2,0.2-0.4,0.5-0.5,0.6
		c-0.9,0.3-1.6,0.8-2.3,1.3L24.8,47c-0.3,0.1-0.5,0.3-0.8,0.4c-0.9,0.5-1.8,1-2.8,1.4c-0.2,0.1-0.5-0.1-0.7,0.3h-0.2
		c-0.1,0-0.1-0.2-0.2-0.2c-0.1-0.1-0.1-0.2,0-0.2c0.6-0.2,1.2-0.6,1.8-0.9l0.5-0.2v-0.1c0.6-0.6,1.5-0.8,2-1.5
		c0.1-0.1,0.3-0.1,0.4-0.1c0.3-0.1,0.5,0,0.6-0.4c0-0.1,0.2-0.2,0.3-0.3c0,0,0.1,0,0.1-0.1h0.6c0.2-0.1-0.1-0.5,0.3-0.5
		c0.7-0.6,1.6-1,2.3-1.7c0.5-0.2,0.8-0.7,1.4-0.8l2.7-1.8l0.5-0.7c-0.2,0.1-0.4,0-0.5,0.1L31.8,40.6z"/>
	<path d="M30.9,44.1c0.1-0.1,0.1-0.1,0.1-0.1C30.9,44,30.7,44,30.9,44.1z"/>
	<path d="M40.1,35.6c-0.1,0-0.2,0-0.2-0.1v0.3C39.9,35.7,40.1,35.7,40.1,35.6z"/>
	<path d="M46.9,30.5l0.5-0.4c0.2-0.1,0.2-0.1,0.2-0.3c0.2,0,0-0.1-0.1-0.2h-0.2c-0.4,0.1-0.9,0.4-1.1,0.8c-0.1,0.1-0.1,0.1-0.1,0.3
		c0.1,0.2,0.2,0.2,0.2,0.4c0.1,0.1,0.1,0.3,0.3,0.1c0.1-0.1,0.2-0.3,0.2-0.3C46.6,30.7,46.6,30.6,46.9,30.5z"/>
	<path d="M57.6,25c-0.4,0.2-0.4,0.5-0.6,0.6c-0.1,0.1-0.2,0.1-0.4,0.1c0-0.1-0.1-0.2-0.1-0.3c-0.5,0.4-0.8,1.1-1.5,1.3
		c0,0-0.1,0.3,0,0.3c0.2,0.3-0.1,0.6,0.3,0.8c0.2,0,0.2,0.3,0.2,0.5c0.1,0,0.2,0,0.2,0.2c0.5-0.1,1.1-0.2,1.3-0.5
		c0.6-0.4,1-0.6,1.6-0.7l0.5-0.3c1.6-0.9,3.3-1.9,4.6-3c0.9-0.6,1.9-1.4,2.7-2.1c1.1-0.8,2.2-1.6,3.2-2.5c0.9-0.8,1.9-1.6,2.7-2.6
		l1.4-1.5c0.3-0.5,0.9-1,1.5-1.5c0.7-0.7,1.5-1.4,2.1-2.2c0.3-0.4,0.7-0.5,0.9-0.8c0.4-0.5,0.5,0.7,3.6-5.9c0-0.2,0.1-0.4,0.1-0.4
		c0-0.2,0-0.3-0.1-0.4c-0.8-0.9-1.5-1.7-2.8-1.7c-1.1-0.1-2.2-0.1-2.9,0.8c-0.4,0.3-0.6,0.4-0.8,0.7c-0.2,0.2-0.4,0.4-0.6,0.5
		c-0.4,0.1-0.7,0.5-1,0.7c-0.7,0.8-1.5,1.4-2.4,2.1c-1.9,2-2.6,2.1-2.4,2.8h0.2L69,10.3c-0.1,0.2-0.2,0.1-0.3,0
		c-0.7,0.2-1.1,0.8-1.3,1.6h0.2v0.4h-0.2c0-0.1,0-0.3-0.1-0.4c-0.5,0.2-0.8,0.6-1.1,1.1v0.2h0.3c-0.1,0.2-0.1,0.3-0.3,0.3v-0.3
		c-0.6,0-0.8,0.5-0.8,0.9l0.4-0.3c0.1,0,0.3-0.1,0.4-0.2v0.4c0.3-0.2,0.5-0.4,0.7-0.6c0.2-0.2,0.2-0.3,0.4-0.3
		c0,0.1-0.1,0.2-0.1,0.3h-0.2c-0.3,0.6-0.3,1-0.6,1.4c-0.1,0.2-0.2,0.4-0.4,0.5c-0.3,0.3-0.5,0.3-0.7,0c0.1-0.2,0.2-0.2,0.3-0.4
		c0.1-0.2,0.1-0.4,0.1-0.6c-0.1,0.2-0.3,0.3-0.5,0.4v-0.6c-0.5,0.2-0.9,0.7-1.1,1.3h0.3c0,0.2-0.1,0.2-0.1,0.3
		c-0.1-0.1-0.1-0.1-0.2-0.3c-0.4,0.3-0.7,0.7-0.9,1.1c-0.2,0.1-0.2,0.2-0.2,0.3c0.2-0.1,0.3-0.1,0.5-0.2V17c0.2-0.1,0.4-0.1,0.6-0.2
		v0.4h0.3c0,0,0-0.1,0.1-0.1c0,0,0,0.1,0.1,0.1H65c0.3-0.2,0.5-0.4,0.5-0.8c0.5-0.3,1.1-0.8,1.6-0.8c0.4-0.3,0.6-0.8,0.7-1.2
		c0-0.4,0.1-0.6,0.3-1c0.2-0.2,0.3-0.3,0.4-0.5C68,12.8,68,12.8,67.6,13l0.1-0.1h-0.1c0-0.2,0-0.3,0.1-0.5c0.1-0.1,0.4-0.2,0.5-0.3
		c0-0.2,0.1-0.3,0.3-0.3v0.3c0.1,0,0.3,0,0.4,0.1c0.1,0,0.2,0.1,0.4,0c0-0.1,0-0.1,0.1-0.2c2.6-2.3,1.1-1.6,6.2-6.2
		c0.6-0.6,1.3-1.1,2-1.5c0.2-0.2,0.2-0.2,0.3-0.4c0.2-0.5,0.7-0.6,0.9-0.9c0-0.1,0.4,0,0.5,0.1c0.4,0.5,0.6,0.9,0.3,1.5
		c-1.7,3.4-3.9,5.8-6.3,8.3c-1,0.9-1.9,1.8-2.9,2.7c-0.9,0.8-1.9,1.8-3,2.5c-0.9,0.7-1.5,1.4-2.4,1.9c-0.2,0.3-0.6,0.6-0.9,0.7
		c-0.6,0.4-1.1,0.8-1.6,1.2c-0.4,0.3-0.7,0.6-1,0.9c-0.4,0.4-0.8,0-1.3,0.3c0,0.4-0.2,0.6-0.4,0.8c-0.1,0.2-0.2,0.2-0.2,0.2
		c-0.5-0.3-0.5,0.6-0.9,0.4V24C58,24.2,57.6,24.5,57.6,25z M65.2,16.2H65c0-0.5,0.2-0.6,0.5-0.9C65.5,15.7,65.2,16,65.2,16.2z
		 M70.1,10L70.1,10c-0.1,0.1-0.1,0.2-0.2,0.2l-0.2,0.2c-0.1,0.5-0.4,0.6-0.7,0.8c0-0.4,0.2-0.7,0.5-0.8c0.2-0.4,0.4-0.6,0.7-0.7
		l-0.1,0.1h0.1C70.3,10,70.2,10,70.1,10z M71.5,8.6l-0.1,0.2l-0.6,0.6c-0.1,0-0.1,0.1-0.1,0.1h0.1c-0.1,0.2-0.2,0.3-0.2,0.3
		c0-0.1,0-0.2,0.1-0.2V9c0.2-0.1,0.3-0.1,0.3-0.3c0.2-0.2,0.4-0.4,0.7-0.5C71.6,8.3,71.6,8.5,71.5,8.6z M77.6,8.3
		c0.1,0.2,0.1,0.5-0.2,0.6C77.4,8.7,77.4,8.5,77.6,8.3z"/>
	<path d="M50.1,36.4v-0.5c-0.5,0.2-0.6,0.5-0.5,1.1h0.2C49.8,36.7,49.9,36.5,50.1,36.4z"/>
	<rect x="55.5" y="28.6" width="0.2" height="0.5"/>
	<path d="M55.1,30.4c0.1,0,0.2-0.1,0.2-0.1c0.2-0.1,0.2-0.3,0.2-0.3c-0.2,0.1-0.3,0.1-0.4,0.2C55.1,30.3,55.1,30.4,55.1,30.4z"/>
	<path d="M57.9,23.7c0.2-0.1,0.4-0.2,0.6-0.3V23C58.1,23.2,57.9,23.4,57.9,23.7z"/>
	<rect x="49.5" y="36.9" width="0.2" height="0.1"/>
	<path d="M62.7,20.1c0-0.1,0-0.1-0.1-0.1c-0.1,0.1-0.2,0.3-0.3,0.3c0,0.1,0.1,0.1,0.1,0.1C62.6,20.5,62.8,20.4,62.7,20.1z"/>
	<polygon points="58.7,22.7 58.7,22.6 58.6,22.7 	"/>
	<rect x="49.5" y="38.8" width="0.2" height="0.1"/>
	<path d="M61.8,21.1c-0.1,0.1-0.2,0.3-0.3,0.3c-0.1,0.1-0.2,0.2-0.4,0.2l-0.2,0.7c0.2,0,0.4-0.1,0.6-0.3c0.3-0.1,0.5-0.4,0.7-0.6
		c0.2-0.1,0.4-0.4,0.3-0.6C62.2,20.7,62,21,61.8,21.1z"/>
	<path d="M59.8,21.6c0.1,0.4-0.2,0.7-0.4,0.8c0,0.2-0.2,0.3-0.4,0.2c0-0.1,0.1-0.2,0.4-0.2c-0.2-0.2-0.2-0.4-0.2-0.6
		c-0.3,0.2-0.5,0.4-0.4,0.8c0.1,0,0.2,0.1,0.3,0.1c0,0.4-0.2,0.6-0.5,0.8V24c0.2-0.2,0.3-0.3,0.5-0.5c0.2-0.2,0.4-0.4,0.6-0.4
		c-0.1-0.4,0.1-0.6,0.4-0.7v-0.1c0-0.4,0.3-0.5,0.6-0.7V21c-0.2,0.1-0.4,0.2-0.6,0.4v-0.6c-0.4,0.1-0.4,0.4-0.4,0.8H59.8z"/>
	<polygon points="68.4,12.4 68.4,12.2 68.2,12.2 	"/>
	<path d="M62.2,19c-0.3,0.1-0.6,0.3-0.6,0.7C62.2,19.6,62.2,19.3,62.2,19z"/>
	<path d="M61.6,19.7c-0.2,0.2-0.5,0.4-0.7,0.6l-0.3,0.2V21C61.4,20.5,61.6,20.4,61.6,19.7z"/>
	<path d="M60.7,21.6h-0.1c0.1,0.1,0.1,0.1,0.1,0.2C60.7,21.6,60.7,21.6,60.7,21.6z"/>
	<path d="M63,17.5v-0.5c-0.3,0.3-0.6,0.5-0.7,0.9C62.5,17.9,62.8,17.7,63,17.5z"/>
	<path d="M60.1,20.5c0,0.1,0,0.2-0.1,0.3c0.3-0.1,0.5-0.2,0.6-0.2C60.5,20.3,60.3,20.1,60.1,20.5z"/>
	<path d="M59.8,23.2H60c0-0.1,0-0.1-0.1-0.2C60,23.1,59.9,23.1,59.8,23.2z"/>
	<path d="M63.1,17.5c-0.1,0.4-0.2,0.6-0.5,0.9c-0.2,0.1-0.4,0.2-0.4,0.4c0.2,0,0.4,0,0.6,0.1c-0.1,0.1-0.2,0.3-0.2,0.3
		c-0.1,0.3-0.1,0.4,0.1,0.4c0.3-0.1,0.5-0.1,0.8-0.2c0.3-0.2,0.2-0.3,0.2-0.5c0.1-0.1,0.3-0.1,0.5-0.1h0.1c-0.1-0.1-0.1-0.2-0.1-0.2
		c-0.2,0-0.4,0-0.5-0.1c0-0.2,0.2-0.2,0.3-0.3c0.3,0,0.4-0.1,0.4-0.2c0-0.2-0.2-0.3-0.4-0.3h-0.3c0-0.1,0-0.3,0.1-0.5
		c0-0.1,0.1-0.2,0.1-0.4c-0.2,0.1-0.3,0.1-0.5,0.1C63.3,17.2,63.3,17.5,63.1,17.5z"/>
	<path d="M68.4,12.4V13C68.7,12.8,68.7,12.6,68.4,12.4z"/>
	<path d="M63.3,16.8c-0.1,0-0.2,0.1-0.2,0.2h0.2v0.1h0.1V17L63.3,16.8z"/>
	<rect x="49.2" y="38.8" width="0.1" height="0.1"/>
	<path d="M64.8,17.2h-0.2c0.1,0.1,0.1,0.1,0.1,0.3C64.8,17.3,64.8,17.3,64.8,17.2z"/>
	<path d="M65.5,16.5L65.5,16.5C65.4,16.5,65.5,16.5,65.5,16.5z"/>
	<rect x="51.7" y="34.5" width="0.1" height="0.1"/>
	<path d="M51.7,33c-0.4,0.1-0.5,0.3-0.5,0.7C51.6,33.5,51.7,33.3,51.7,33z"/>
	<path d="M66.3,31.1h-0.5v0.2C65.8,31.2,66.2,31.3,66.3,31.1z"/>
	<path d="M51.4,35.2c0-0.2-0.1-0.2-0.1-0.3c-0.1,0.1-0.2,0.1-0.2,0.2C51,35.2,51,35.4,51,35.6c0.2-0.1,0.3-0.2,0.4-0.3V35.2z"/>
	<path d="M66.3,30.7c0.1-0.1,0.2-0.3,0.2-0.4c-0.6,0.2-1,0.4-1.3,0.7h0.5C65.8,30.7,66.1,30.8,66.3,30.7z"/>
	<path d="M67.6,29.6c-0.4,0-0.8,0.2-1.1,0.6h0.8c0,0.1-0.1,0.1-0.1,0.2c-0.1,0.1-0.2,0.1-0.3,0.2c0.1,0,0.3,0.1,0.4,0.1
		c0.3-0.2,0.7-0.4,0.8-0.7h-0.6V29.6z"/>
	<path d="M51.1,33.7c-0.3,0.3-0.4,0.7-0.5,1.1C51.1,34.5,51.2,34.2,51.1,33.7z"/>
	<path d="M53,33.7c0.5-0.4,0.8-0.7,0.9-1.3v-0.1h-0.2l0.2-0.1c0.1,0,0.1,0.1,0.1,0.1c0.2-0.2,0.4-0.5,0.5-0.8
		c-0.1-0.1-0.2-0.1-0.2-0.1c-0.2,0-0.3,0.1-0.5,0.2c-0.3,0.2-0.2,0.7-0.5,0.7c0.1,0.2,0.2,0.5-0.2,0.6L52.8,33v0.1h-0.3
		c0,0.3-0.1,0.7-0.6,0.8v0.5h0.3C52.4,34.2,52.8,33.9,53,33.7z"/>
	<path d="M54.2,29.2c0.3-0.2,0.5-0.5,0.5-0.8C54.3,28.5,54.2,28.7,54.2,29.2z"/>
	<path d="M52.5,31.5c-0.4,0.2-0.5,0.5-0.6,0.8C52.3,32.2,52.5,31.9,52.5,31.5z"/>
	<path d="M52.2,33.2h0.3v-0.5C52.2,32.8,52.3,33,52.2,33.2z"/>
	<path d="M49.5,37.5V37C49.2,37.2,49.2,37.3,49.5,37.5z"/>
	<rect x="65.7" y="31" width="0.1" height="0.1"/>
	<path d="M50.3,35.3c-0.2,0.1-0.2,0.3-0.2,0.6h0.2V35.3z"/>
	<path d="M51.7,34.5V34C51.4,34.3,51.4,34.3,51.7,34.5z"/>
	<rect x="65.2" y="31" width="0.1" height="0.1"/>
	<path d="M107.8,13h-0.6v0.5C107.5,13.4,107.7,13.2,107.8,13z"/>
	<polygon points="82.3,32.2 82.4,32.2 82.4,32 	"/>
	<polygon points="84.1,28.5 84.3,28.6 84.3,28.5 	"/>
	<path d="M89.9,20.7c-0.2,0-0.3,0.1-0.3,0.3h0.3V20.7z"/>
	<path d="M84.5,28.1h0.2v-0.3C84.6,27.8,84.5,27.8,84.5,28.1z"/>
	<path d="M84.5,28.1c-0.2,0.1-0.2,0.2-0.2,0.4h0.2V28.1z"/>
	<path d="M85.6,26.5c-0.2,0.1-0.3,0.3-0.3,0.5h0.3V26.5z"/>
	<path d="M146,30.5c-0.2-0.1-0.3-0.2-0.5-0.3c-0.4-0.6-0.8-0.6-1.5-0.4c-0.4,0.3-0.9,0.5-1.3,0.7c-0.5,0.2-1,0.3-1.5,0.6
		c-1.6,0.7-3.4,1.6-5.2,2.3c-0.3,0.1-0.6,0.1-0.7,0.3c-0.5,0.2-1,0.5-1.4,0.8c-0.3,0.3-0.3,0.3-0.5,0c-0.9,0.5-1.7,0.9-2.7,1.4
		c-0.8,0.3-1.8,0.8-2.7,1c-1.1,0.3-2.2,0.6-3.4,0.6c-0.5,0.3-1.2,0-1.8-0.2c-0.4-0.2-0.6-0.5-0.4-1c0.5-1.4,1.5-2.5,2.4-3.7
		c0.2-0.2,0.3-0.2,0.5-0.2c0.8,0,1.7,0.2,2.4,0.2c0.5,0,1.1,0.1,1.5-0.2c1.7-0.3,3.5-0.8,4.9-1.9l0.7-0.5c1.1-0.4,1.5-1.4,2.2-2.2
		c0.5-0.6,0.5-1.3,0.1-2.1c-0.2-0.3-0.4-0.8-0.8-1.2c-0.1-0.1-0.4-0.2-0.6-0.2c-0.2-0.2-0.4,0-0.5-0.2c-0.6-0.4-1.2-0.3-1.9,0.2
		c-0.5,0.2-1.1,0.3-1.6,0.5c-0.7,0.1-1.4,0.4-1.9,0.8c-1.8,0.9-3.3,2.2-4.8,3.5c0,0,0,0,0,0c-0.2,0-0.4,0.1-0.6,0.1
		c-0.3,0.3-0.7,0.5-1.1,0.6c-0.9,0.2-1.6,0.3-2.4,0.6c-1.3,0.3-2.6,0.5-3.8,0.7c-0.8,0.2-1.7,0.2-2.6,0c0.3-0.6,0.5-1.3,0.7-1.8
		c0.4-1.4,0.3-2.9-0.8-4.1c-0.3-0.3-0.5-0.6-0.7-1.1c-0.2-0.2,0.1-0.2,0.2-0.2c0.3-0.2,0.3-0.6,0-0.6c-0.6-0.2-1.2-0.6-1.9-0.4
		c-0.4,0.2-0.7,0.2-1.2,0.2c-0.5-0.1-1-0.1-1.5,0c-0.4,0-0.7,0-1,0.2c-0.7,0.3-1.4,0.5-2.1,0.9c-0.4,0.3-0.8,0.7-1.2,1.1
		c-0.3,0.4-0.4,0.8-0.4,1.5c0,0.5-0.2,1.1-0.7,1.5c-0.5,0.5-0.9,1.1-1.3,1.6c-0.3,0.2-0.6,0.4-0.9,0.6c-0.4,0.2-0.9,0.5-1.1,0.9
		c-0.1,0.3-0.4,0.5-0.8,0.4c-0.1,0-0.4,0.2-0.4,0.4c-0.2,0.1-0.3,0.3-0.5,0.5c-1.3,0.7-2.4,1.8-3.8,2.7c-1.8,1.2-3.7,2.4-5.6,3.4
		c-1.4,0.8-3,1.5-4.7,1.9c-1,0.2-1.9,0.1-3-0.1c-0.5-0.1-0.8-0.6-0.8-1c0-0.5,0-1.1,0.4-1.5v-0.1c-0.5-0.3-0.1-0.5,0.1-0.7
		c0.1-0.2,0.3-0.4,0.3-0.5c0.2-0.5,0.4-0.7,0.5-1.1c0.2-0.5,0.6-0.7,0.7-1.3c0.1-0.3,0.3-0.6,0.5-0.9c0.4-0.5,0.8-0.6,1.1-1.2
		l1.1-1.2c4.8-2.9,11.8-7.2,17.6-13c0.1,0,0.2-0.1,0.2-0.2c0.5-1,1.8-1.9,2.6-2.7c0.1-0.1,0.1-0.3,0.2-0.5c-0.4,0.1-0.6,0.3-0.8,0.5
		c-0.2,0.2-0.3,0.3-0.4,0.3c0-0.1-0.1-0.3-0.1-0.3c-0.1-0.3-0.1-0.3,0.2-0.5c0.3,0,0.4,0,0.5-0.3c-0.1,0-0.1-0.1-0.2-0.1
		c0.1,0,0.1-0.2,0.2-0.2v0.3c0.1-0.1,0.2-0.3,0.3-0.3c0.3,0,0.2,0.4,0.3,0.5c0.4-0.2,0.7-0.7,0.9-0.9v-0.4c-0.1,0.2-0.2,0.3-0.3,0.4
		c-0.3,0.2-0.6,0.3-1,0.3c0.2-0.7,0.8-0.9,1.3-1.1c0.2-0.2,0.2-0.2,0.2-0.2c0.1-0.4,0.1-0.8,0.5-0.7c0.2,0,0.4,0,0.6-0.1
		c0,0,0.1-0.1,0.1-0.1c-0.1-0.1-0.1-0.1-0.2-0.1c-0.2,0.1-0.2,0.1-0.3,0.1H108v-0.2c0.2-0.4,0.5-0.6,0.9-0.4c0.1,0,0.4-0.2,0.4-0.2
		c0.1-0.2,0.1-0.2,0.1-0.2c-0.1-0.4-0.2-0.1-0.3-0.1h-0.3c0-0.2,0-0.3,0.1-0.3c0.2-0.3,0.7-0.3,0.8-0.7l0.9-1.3
		c0.4-0.3,0.5-0.8,0.7-1.3c0.2-0.4,0.1-0.7-0.1-1.1c-0.2-0.2-0.4-0.5-0.8-0.6C109.6,5,108,5,107,5.3c-2.3,1.1-4.2,2.5-6,3.8
		c-0.9,0.7-1.8,1.5-2.6,2.4c-1.9,1.7-3.7,3.7-5.7,5.5c-0.6,0.6-1,1.3-1.5,1.9v0.3h0.2c0,0.1,0,0.1-0.2,0.1c0-0.1,0-0.1-0.1-0.1
		c-0.5,0.3-0.9,0.8-1.3,1.4v0.2h0.2C90,20.8,90,20.9,89.9,21c0,0.1,0,0.2-0.1,0.4l-0.1,0.1l-0.1-0.1V21c-0.5,0.2-0.8,0.6-0.8,1
		c-0.6,0.3-0.8,0.6-0.8,1.2c-0.9,0.6-1.5,1.6-1.8,2.5v0.2h0.2l-0.2,0.2c0,0.2-0.1,0.3-0.3,0.4c0,0.2-0.1,0.3-0.3,0.5
		c-0.1,0.2-0.2,0.3-0.3,0c-0.4,0.2-0.6,0.4-0.6,0.8H85c-0.1,0.1-0.2,0.3-0.3,0.3c0,0.2,0,0.4-0.3,0.6l0.1-0.1h-0.1
		c0,0.1-0.1,0.2-0.2,0.2v-0.1c-0.4,0.1-0.6,0.4-0.6,0.7h0.3c0,0.2,0,0.2-0.1,0.2c0,0,0,0,0,0c0,0,0-0.1-0.2-0.2c0,0,0,0,0,0
		c0,0-0.1-0.1-0.1-0.1c-0.1-0.1-0.4-0.1-0.4-0.1c-0.6-0.1-1.1-0.1-1.5,0.3c-0.4,0.2-0.9,0.5-1.4,0.7c-1.5,0.8-2.9,1.7-4.2,2.8
		c-0.9,0.6-1.8,1.3-2.7,1.9c-0.7,0.6-1.3,1.1-2.1,1.5c-1.3,0.9-2.8,1.7-4.4,2.2c-0.3,0.1-0.6,0.2-1.1,0.2c-0.1,0.1-0.3,0-0.4-0.2
		c0,0,0.1-0.2,0.1-0.3c0.6-0.7,1.1-1.5,1.6-2.4c0.3-0.6,0.6-1.1,1-1.7c0.2-0.2,0.3-0.3,0.5-0.2c0.2,0.1,0.4,0.1,0.6,0.1
		c0.2,0,0.3-0.1,0.5-0.3c0.4-0.8,1.2-1.4,1.7-2.2c0.7-0.8,0.9-1.8,0.7-2.8c0-0.4-0.5-0.3-0.3-0.8v-0.1c-0.6,0-0.9-0.1-1.3-0.6
		c-0.1-0.1-0.3,0-0.4,0c-0.9-0.1-1.7,0.2-2.5,0.6c-0.5,0.2-1,0.5-1.5,0.8c-0.6,0.3-1.1,0.4-1.5,0.8c-0.4,0.5-0.8,0.6-1.3,0.8
		c-0.5,0.2-1.1,0.4-1.5,0.9c-0.1,0.1-0.2,0.2-0.3,0.3c-0.7,0.2-1.2,0.5-1.6,0.8l-4.6,3.8c-0.3,0.3-0.4,0.4-0.6,0.7
		c-0.4,0.2-0.7,0.3-0.8,0.7L51.4,40c-0.4,0.5-1.1,0.8-1.6,1.3l-0.1,0.2c-0.1-0.2-0.1-0.2-0.1-0.3c0.2-0.5,0.5-1.2,0.7-1.9
		c0.2-0.3,0.2-0.6,0.2-0.9c0.1-0.4,0.7-0.5,0.4-1c0.5-0.5,0.7-1.3,1.1-1.8c0.2-0.2,0.3-0.5,0.4-0.6c0-0.1-0.1-0.3-0.2-0.3
		c-0.1,0-0.1,0.1-0.2,0.3c0-0.2-0.1-0.3-0.1-0.3h-0.2v0.3c0,0.2,0.1,0.4,0.1,0.4c-0.1,0-0.2,0.1-0.4,0.1c-0.1,0.6-0.5,0.9-0.8,1.4
		v-0.8h-0.3c0,0.2,0,0.4-0.2,0.5c0,0.3,0,0.4-0.3,0.6c0,0.2,0,0.4-0.3,0.5c0,0.2,0.2,0.6-0.4,0.4c0,0.1-0.1,0.3-0.1,0.5
		c0.2,0.1,0.2,0.3,0.2,0.5h0.2c0-0.2,0-0.4,0.3-0.5v-0.1c0-0.2,0.1-0.4,0.3-0.4c0,0.2,0,0.4-0.3,0.5c0,0.2,0,0.5-0.2,0.6
		c-0.2,0.2-0.2,0.4-0.2,0.5c0,0-0.1,0-0.1,0.1c-0.1-0.1-0.2-0.1-0.2-0.1c0-0.2,0-0.4-0.1-0.5h-0.2c0,0,0,0.1-0.1,0.2
		c0,0.1,0,0.2-0.2,0.2c0,0-0.1-0.1-0.1-0.2v-0.2c-0.4,0.2-0.3,0.4-0.4,0.8c0.1,0.1,0.2,0.1,0.2,0.1V40c-0.1,0-0.1-0.1-0.2-0.1v-0.3
		c-0.1,0.1-0.2,0.1-0.2,0.1c-0.3,1-0.5,1.9-1,2.9c-0.3,0.4-0.3,1,0,1.4c0.3,0.5,0.7,1.1,1.3,1.1c0.3,0,0.5,0,0.5-0.1
		c0.4-0.3,0.8-0.6,1.3-0.9c0.2-0.6,0.9-0.6,1.1-1.1c1.4-1.3,2.8-2.4,4-3.8c0.7-0.8,1.5-1.5,2.3-2.2c1.6-1.2,2.9-2.3,4.5-3.5
		c0.2-0.2,0.3-0.3,0.4-0.5h-0.5c0.1-0.3,0.4-0.3,0.6-0.3c0.1-0.1,0.2-0.1,0.3-0.3v0.3c0.8-0.3,1.6-0.7,2.4-1.3
		c0.1-0.1,0.2-0.2,0.3-0.4h-0.5c0-0.1,0-0.1-0.1-0.2c-0.6-0.1-1.1,0.2-1.4,0.7c0.1,0.2,0.2,0.2,0.2,0.2c0,0-0.1,0-0.2,0.2v-0.4
		c-0.2,0-0.3,0.2-0.5,0.4c-0.1,0-0.2,0.1-0.3,0.2c-0.2,0-0.4,0.1-0.5,0.2c-0.6,0.4-1.3,0.8-1.8,1.3c-0.1,0-0.2,0.2-0.3,0.4
		c-0.5,0-0.8,0.5-1.3,0.7c-0.5,0.5-1.1,0.9-1.7,1.3c-1.3,1.1-2.5,2.2-3.8,3.4c-0.2,0.1-0.3,0.3-0.6,0.3c0.4-0.7,0.8-1.1,1.4-1.6
		c1.3-1.2,2.7-2.3,4.2-3.5c0.7-0.6,1.6-1.3,2.3-1.8c0.8-0.6,1.5-1.2,2.4-1.5c1.3-0.8,2.4-1.7,3.9-2.3c0.6-0.2,1.3-0.7,1.9-0.9
		c0.1,0,0.2,0,0.3,0.2l-0.1,0.2c-0.4,0.2-0.8,0.4-1.1,0.6c-0.3,0.1-0.4,0.2-0.4,0.4h0.5V30c0.2,0.1,0.3,0.2,0.2,0.3
		c-0.2,0.4-0.7,0.7-0.7,1.1c-0.2,0.6-0.4,1.1-0.8,1.6c-1,1.5-2.2,3-3.3,4.7c-0.1,0.3-0.3,0.5-0.4,0.6c-0.5,1.3,0.4,2.5,1.3,2.7
		c1.8,0.2,3.5-0.2,5-1c0.5-0.3,0.8-0.6,1.4-0.7c0.8-0.4,1.6-1.2,2.5-1.6c0.8-0.8,1.7-1.4,2.6-2.1c0.8-0.6,1.4-1.1,2.3-1.5
		c0.1-0.1,0.4-0.3,0.5-0.5c0.9-0.7,1.8-1.3,2.8-2l0.7-0.3c0,0.1,0,0.1-0.1,0.2h0.2c0,0.2,0,0.4-0.2,0.6c-0.1,0.2-0.2,0.2-0.2,0
		L82,32c0,0,0,0.2,0.1,0.2c-0.3,0.1-0.3,0.3-0.3,0.4c-0.3,0.2-0.6,0.4-0.5,0.8h0.3c0,0.2-0.1,0.4-0.3,0.6c-0.1,0.2-0.2,0.2-0.3,0
		c-0.4,0.4-0.5,1-0.7,1.5c-0.4,0.6-0.6,1.4-0.8,2.1c-0.1,0.5-0.1,1.1,0,1.5c0.7,2.2,2.1,3.5,4.6,3.7c0.7,0,1.3-0.1,1.9-0.2
		c0.7,0,1.1-0.3,1.7-0.5c0.5-0.2,1.2-0.5,1.7-0.8c0.8-0.4,1.6-0.7,2.3-1.2c0.5-0.3,1.1-0.7,1.5-1.1c0.5-0.2,0.8-0.5,1.3-0.8
		c0.2-0.2,0.3-0.3,0.6-0.5c0.4-0.2,0.9-0.4,1.2-0.7c0.5-0.5,0.8-0.8,1.4-1c0.3-0.2,0.5-0.4,0.3-0.7c0-0.2,0.2-0.2,0.2-0.3
		c0.2,0.2,0.6,0.3,1-0.1c0.2-0.2,0.3-0.3,0.5-0.4l0.3-0.2c-0.2,0.5-0.3,1-0.4,1.5c-0.3,0.5-0.3,1-0.3,1.4c0,1.6,1.2,3.3,3.3,3.5
		c1.2,0,2.3-0.3,3.4-0.9c1.6-0.8,2.8-2.1,4.4-3c0.1-0.1,0.1-0.2,0.2-0.3l1.8-1.9c0.9-1.4,0.9-1.2,2.5-1.2c1,0,1.9,0,2.8-0.1
		c0.7-0.1,1.4-0.2,2-0.2c0.3,0,0.5-0.1,0.6-0.4c0,0,1.1-0.3,1.8-0.5c-0.4,0.5-0.7,1.1-1,1.7l-0.4,0.7c-0.2,0.9-0.2,1.2,0,2.3
		c0.2,0.6,0.5,1.3,1.1,1.8c0.4,0.4,0.8,0.6,1.4,0.8c0.9,0.3,1.8,0.7,2.8,0.3c0.2-0.3,0.4-0.3,0.7-0.4c1.8-0.3,3.6-0.9,5.2-1.8
		c1.1-0.5,2.3-1.1,3.4-1.5c1.1-0.6,2.4-0.8,3.5-1.6c0.1-0.1,0.3-0.1,0.4-0.2c1.3-0.5,2.6-1,3.9-1.6c0.9-0.4,1.6-0.8,2.5-0.9
		c0.1,0,0.3-0.1,0.3-0.2C146.6,31.3,146.4,30.7,146,30.5z M100.2,20.1c0.2-0.2,0.5-0.5,0.8-0.7l0.2,0.3
		C101.1,20.1,100.7,20.3,100.2,20.1z M102.6,18.3c0-0.1-0.1-0.1-0.3-0.2c0-0.4,0.3-0.4,0.5-0.6c0.1,0.2,0.2,0.2,0.3,0.3
		C103.2,18.1,102.9,18.2,102.6,18.3z M103.7,17.2c-0.1,0.1-0.2,0.3-0.3,0.3v-0.3h-0.2c0.1-0.1,0.1-0.2,0.2-0.2v0.2H103.7
		c-0.1-0.1-0.2-0.2-0.3-0.3v-0.5l-0.1-0.2h0.1v0.2l0.8-0.5c0.1,0.1,0.2,0.2,0.2,0.2C104.3,16.5,104,16.9,103.7,17.2z M92.6,18.9
		c0.1,0.3,0,0.4-0.3,0.6C92.2,19.2,92.3,19,92.6,18.9z M92,19.7v0.6c-0.2,0.1-0.5,0.2-0.8,0.4C91.2,20.1,91.6,20,92,19.7z
		 M90.7,21.4c0,0.4-0.1,0.4-0.5,0.4C90.2,21.5,90.4,21.4,90.7,21.4z M89.1,23.2c0.1-0.3,0.2-0.5,0.6-0.5
		C89.5,23.1,89.5,23.1,89.1,23.2v0.6h-0.3C88.8,23.5,88.9,23.3,89.1,23.2z M90.1,24.2c0.3-0.4,0.7-0.6,0.7-1.1
		c0-0.1,0.1-0.2,0.2-0.4c0.2-0.2,0.3-0.5,0.5-0.7c0.3-0.2,0.4-0.5,0.7-0.6c0.2-0.3,0.2-0.4,0.4-0.6c0.1-0.3,0.4-0.4,0.5-0.7
		c0.4-0.4,0.9-0.6,0.9-1.2c0.3-0.4,0.8-0.9,1.2-1.4c0.4-0.4,0.7-0.8,1-1.2c0.1-0.2,0.3-0.3,0.4-0.4c0.7-0.7,1.6-1.3,2.1-2.2
		c0.9-0.7,1.5-1.7,2.4-2.2c0.8-0.6,1.5-1.5,2.5-1.9c0.2,0,0.3-0.3,0.5-0.4c0.8-0.7,1.9-1.2,2.8-1.8c0.7-0.4,1.5-0.9,2-1.5
		c0.3-0.3,0.8-0.3,1,0.2c0,0.2,0.2,0.4,0,0.6c-0.2,0.5-0.4,0.9-0.8,1.5c-0.4,0.7-0.5,1.3-1.1,2c-1.1,1.3-2.2,2.7-3.3,4
		c-1.6,1.9-4,3.6-5.7,5.5c-1.8,1.9-3.7,3.5-5.8,5.1c-2.2,1.6-3.4,2.3-5,3.4c-0.3,0.2-0.7,0.9-1.2,0.8c0-0.4,0.2-0.4,0.3-0.8
		c0.4-0.3,0.4-0.8,0.7-1.2C88.6,26,89.3,25,90.1,24.2z M87.8,25c0.1-0.4,0.3-0.8,0.7-1C88.4,24.5,88.2,24.8,87.8,25
		c0,0.5-0.2,0.7-0.6,0.7C87.1,25.5,87.4,25.3,87.8,25z M87.1,25.9c0,0.4-0.2,0.7-0.4,0.7C86.6,26.3,86.9,26,87.1,25.9z M86.1,27.5
		c-0.1-0.3,0-0.4,0.2-0.5C86.4,27.2,86.4,27.4,86.1,27.5C86,27.7,86,27.8,86,28.1c-0.1,0-0.2,0.1-0.5,0.2
		C85.6,27.8,85.6,27.7,86.1,27.5z M60.5,34.4c-0.2,0.1-0.1,0-0.1-0.1C60.4,34.3,60.5,34.4,60.5,34.4z M85,29.2v0.5
		c0.1,0,0.2,0.1,0.2,0.1s-0.1,0.1-0.2,0.1v-0.2c-0.2,0-0.3,0.1-0.3,0.2h-0.2C84.5,29.5,84.6,29.2,85,29.2z M82.9,32.6
		c0.1,0.4-0.3,0.6-0.5,0.8C82.3,33,82.5,32.6,82.9,32.6z M81.8,34.5c0-0.3,0-0.4,0.2-0.5v0.5c0.4,0.1,0.4,0.3,0,0.5
		c0,0.2,0,0.2-0.1,0.2c0-0.1-0.2-0.1-0.2-0.2c-0.2,0.2-0.3,0.2-0.5,0.2C81.3,34.9,81.4,34.5,81.8,34.5z M80.7,37.2h-0.2
		c0-0.2-0.1-0.4,0.3-0.5v-0.6c-0.1-0.1,0-0.2,0.2-0.2v0.8h0.2c0.1,0.1,0.2,0.1,0.3,0.2c-0.1,0-0.1,0.1-0.2,0.2
		c-0.1,0.1-0.2,0.1-0.3,0.2c0,0-0.2,0.2-0.2,0.2C80.8,37.3,80.8,37.2,80.7,37.2z M98.6,34.4c-0.2,0.1-0.2,0.2-0.2,0.4
		c-0.3,0-0.4,0.1-0.5,0.1c-1,1-2.3,1.5-3.4,2.3c-1.7,0.9-3,2.1-4.8,2.6h-0.4c0.4-0.5,0.9-0.7,1.4-0.9c0.3-0.1,0.5-0.2,0.7-0.4
		c1.2-0.8,2.4-1.5,3.5-2.4c1.1-0.9,2.5-1.6,3.7-2.4c0.5-0.3,1.1-0.6,1.7-1.1c0.3-0.2,0.6-0.4,1-0.7c-0.2,0.3-0.4,0.6-0.5,0.9
		C100,33.3,99.3,33.9,98.6,34.4z M110.4,33.2c-0.6,0.5-0.9,0.8-1.3,1.3c-1.5,1.4-3.2,2.6-5.2,3.5c-0.6,0.2-1.1,0.4-1.5,0.3h-0.8
		c-0.3-0.1-0.6-0.4-0.5-0.7c0.4-0.8,0.7-1.8,1.1-2.7c0.6-1,1.1-1.9,1.5-2.9c0-0.2,0.1-0.3,0.2-0.4c0,0,0.1-0.1,0.1-0.1
		c0.4-0.4,0.9-0.8,1.7-0.8c0,0,0.2-0.1,0.3-0.2c1.1,1.1,2.3,1.9,3.9,2.2c0.1,0.2,0.2,0.2,0.3,0.2C110.4,32.8,110.5,33.1,110.4,33.2z
		 M113.5,27.6c-0.1,1.1-0.5,2-1.1,3c-0.2,0.3-0.5,0.5-1.1,0.4c-0.9-0.2-1.8-0.3-2.8-0.7c-0.6-0.2-1.4-0.4-1.8-0.9
		c-0.1-0.2-0.3-0.3-0.4-0.5c-0.3-0.2-0.3-0.4,0-0.6l1.2-1.1c0.7-0.5,1.3-1.1,2.1-1.5c0.6-0.5,1.3-0.9,2.1-1.3c0.1-0.1,0.2,0,0.3,0
		c0.2,0.2,0.4,0.3,0.4,0.4C113.2,25.5,113.7,26.5,113.5,27.6z M130.8,27.4c1-0.6,2.2-0.9,3.3-1.1c0.3,0,0.6-0.1,0.6-0.3
		c0.1-0.2,0.3-0.4,0.4-0.2c0.2,0.2,0.4,0.3,0.3,0.6c0,0.3,0,0.6-0.2,0.7c-0.3,0.6-0.7,1.3-1.3,1.6c-1.1,0.8-2.3,1.5-3.7,1.9
		c-0.7,0.3-1.2,0.5-1.8,0.7c-0.4,0.1-1.1,0.2-1.5,0.3v-0.1c-0.3,0-0.5,0-0.7,0.1c-0.2,0-0.5,0.2-0.6,0c-0.1-0.2,0.3-0.5,0.3-0.5
		l1.4-1.4C128.5,28.9,129.5,28.1,130.8,27.4z"/>
	<path d="M16.8,65.3c0.2-0.2,0.5-0.4,0.8-0.6c0.3-0.1,0.6-0.2,1-0.2c0.2,0,0.4,0,0.6,0c0.2,0,0.3,0.1,0.4,0.1c0.1,0,0.2,0.1,0.3,0.1
		c0.1,0.1,0.2,0.1,0.2,0.1s0.1,0.1,0.2,0.1c0.1,0,0.1,0,0.2,0c0.1,0,0.2,0,0.3-0.1s0.1-0.1,0.2-0.2l0.7-0.9
		c-0.2-0.2-0.4-0.3-0.6-0.5c-0.2-0.1-0.4-0.3-0.7-0.4c-0.3-0.1-0.5-0.2-0.8-0.2c-0.3-0.1-0.6-0.1-0.9-0.1c-0.7,0-1.3,0.1-1.8,0.3
		c-0.6,0.2-1,0.5-1.4,0.9c-0.4,0.4-0.7,0.9-0.9,1.4c-0.2,0.5-0.3,1.1-0.3,1.8c0,0.6,0.1,1.2,0.3,1.8c0.2,0.5,0.5,1,0.8,1.4
		s0.8,0.7,1.3,0.9c0.5,0.2,1.1,0.3,1.8,0.3c0.7,0,1.3-0.1,1.9-0.3c0.5-0.2,1-0.6,1.3-1l-0.8-0.8c0,0-0.1-0.1-0.1-0.1
		c0,0-0.1,0-0.1,0c-0.1,0-0.1,0-0.2,0c-0.1,0-0.1,0.1-0.2,0.1c-0.1,0.1-0.2,0.2-0.4,0.3c-0.1,0.1-0.2,0.1-0.4,0.2
		c-0.1,0-0.3,0.1-0.4,0.1c-0.2,0-0.3,0-0.5,0c-0.3,0-0.6-0.1-0.9-0.2c-0.3-0.1-0.5-0.3-0.7-0.5c-0.2-0.2-0.4-0.5-0.5-0.9
		s-0.2-0.7-0.2-1.2c0-0.4,0.1-0.8,0.2-1.2S16.6,65.6,16.8,65.3z"/>
	<path d="M38.1,64.2c-0.4-0.4-0.9-0.7-1.4-0.9c-0.6-0.2-1.2-0.3-1.8-0.3c-0.7,0-1.3,0.1-1.9,0.3c-0.6,0.2-1,0.5-1.4,0.9
		c-0.4,0.4-0.7,0.9-0.9,1.4s-0.3,1.1-0.3,1.8c0,0.6,0.1,1.2,0.3,1.8s0.5,1,0.9,1.4c0.4,0.4,0.9,0.7,1.4,0.9c0.6,0.2,1.2,0.3,1.9,0.3
		c0.7,0,1.3-0.1,1.8-0.3c0.6-0.2,1-0.5,1.4-0.9c0.4-0.4,0.7-0.9,0.9-1.4s0.3-1.1,0.3-1.8c0-0.6-0.1-1.2-0.3-1.8S38.5,64.6,38.1,64.2
		z M37.1,68.5c-0.1,0.3-0.3,0.6-0.5,0.9c-0.2,0.2-0.5,0.4-0.8,0.5c-0.3,0.1-0.6,0.2-1,0.2c-0.4,0-0.7-0.1-1-0.2
		c-0.3-0.1-0.6-0.3-0.8-0.5c-0.2-0.2-0.4-0.5-0.5-0.9c-0.1-0.3-0.2-0.7-0.2-1.2c0-0.4,0.1-0.8,0.2-1.2c0.1-0.3,0.3-0.6,0.5-0.9
		c0.2-0.2,0.5-0.4,0.8-0.5c0.3-0.1,0.7-0.2,1-0.2c0.4,0,0.7,0.1,1,0.2c0.3,0.1,0.6,0.3,0.8,0.5c0.2,0.2,0.4,0.5,0.5,0.9
		c0.1,0.3,0.2,0.7,0.2,1.2C37.3,67.8,37.2,68.2,37.1,68.5z"/>
	<path d="M53.5,67.3c-0.2-0.2-0.4-0.3-0.6-0.4c-0.2-0.1-0.5-0.2-0.7-0.3c-0.2-0.1-0.5-0.2-0.7-0.2s-0.4-0.1-0.6-0.2
		c-0.2-0.1-0.3-0.2-0.4-0.3c-0.1-0.1-0.2-0.3-0.2-0.4c0-0.3,0.1-0.5,0.3-0.7c0.2-0.2,0.5-0.2,0.8-0.2c0.2,0,0.4,0,0.6,0.1
		c0.2,0.1,0.3,0.1,0.5,0.2c0.1,0.1,0.3,0.1,0.4,0.2S53,65,53.1,65c0.1,0,0.2,0,0.3-0.1c0.1,0,0.1-0.1,0.2-0.2l0.5-0.9
		c-0.2-0.1-0.3-0.3-0.5-0.4c-0.2-0.1-0.4-0.2-0.6-0.3S52.4,63,52.1,63s-0.5-0.1-0.8-0.1c-0.5,0-0.9,0.1-1.3,0.2
		c-0.4,0.1-0.7,0.3-0.9,0.6s-0.4,0.5-0.6,0.8s-0.2,0.6-0.2,1c0,0.4,0.1,0.7,0.2,1c0.1,0.3,0.3,0.5,0.4,0.7c0.2,0.2,0.4,0.3,0.6,0.4
		c0.2,0.1,0.5,0.2,0.7,0.3c0.2,0.1,0.5,0.1,0.7,0.2c0.2,0.1,0.4,0.1,0.6,0.2c0.2,0.1,0.3,0.2,0.4,0.3c0.1,0.1,0.2,0.3,0.2,0.5
		c0,0.3-0.1,0.6-0.3,0.8c-0.2,0.2-0.5,0.2-0.9,0.2c-0.3,0-0.5,0-0.7-0.1c-0.2-0.1-0.4-0.2-0.5-0.3c-0.2-0.1-0.3-0.2-0.4-0.3
		c-0.1-0.1-0.2-0.1-0.4-0.1c-0.1,0-0.2,0-0.3,0.1c-0.1,0-0.1,0.1-0.2,0.2L48,70.6c0.2,0.2,0.4,0.3,0.6,0.5c0.2,0.1,0.5,0.3,0.7,0.4
		s0.5,0.2,0.8,0.2s0.6,0.1,0.8,0.1c0.5,0,0.9-0.1,1.3-0.2c0.4-0.1,0.7-0.4,1-0.6c0.3-0.3,0.5-0.6,0.6-0.9c0.1-0.3,0.2-0.7,0.2-1.1
		c0-0.4-0.1-0.7-0.2-0.9C53.9,67.7,53.7,67.5,53.5,67.3z"/>
	<path d="M71.5,63c-0.1,0-0.1,0-0.2,0c-0.1,0-0.1,0.1-0.1,0.1c0,0-0.1,0.1-0.1,0.2l-2.2,4.4c-0.1,0.2-0.2,0.3-0.2,0.5
		c-0.1,0.2-0.1,0.3-0.2,0.5c-0.1-0.2-0.1-0.3-0.2-0.5C68.1,68,68,67.9,68,67.7l-2.2-4.4c0-0.1-0.1-0.1-0.1-0.2c0,0-0.1-0.1-0.1-0.1
		c-0.1,0-0.1,0-0.2,0c-0.1,0-0.1,0-0.2,0h-1.5v8.7h1.8v-5c0-0.1,0-0.2,0-0.4c0-0.1,0-0.3,0-0.4l2.3,4.5c0.1,0.1,0.2,0.2,0.3,0.3
		c0.1,0.1,0.3,0.1,0.4,0.1h0.3c0.2,0,0.3,0,0.4-0.1c0.1-0.1,0.2-0.2,0.3-0.3l2.3-4.5c0,0.3,0,0.5,0,0.8v5h1.8V63h-1.5
		C71.7,63,71.6,63,71.5,63z"/>
	<polygon points="83.1,71.7 88.7,71.7 88.7,70.1 85.1,70.1 85.1,68.1 87.9,68.1 87.9,66.6 85.1,66.6 85.1,64.5 88.7,64.5 88.7,63 
		83.1,63 	"/>
	<polygon points="97.6,64.6 100.1,64.6 100.1,71.7 102.1,71.7 102.1,64.6 104.5,64.6 104.5,63 97.6,63 	"/>
	<rect x="113.9" y="63" width="2" height="8.7"/>
	<path d="M128.2,65.3c0.2-0.2,0.5-0.4,0.8-0.6c0.3-0.1,0.6-0.2,1-0.2c0.2,0,0.4,0,0.6,0c0.2,0,0.3,0.1,0.4,0.1
		c0.1,0,0.2,0.1,0.3,0.1c0.1,0.1,0.2,0.1,0.2,0.1s0.1,0.1,0.2,0.1c0.1,0,0.1,0,0.2,0c0.1,0,0.2,0,0.3-0.1s0.1-0.1,0.2-0.2l0.7-0.9
		c-0.2-0.2-0.4-0.3-0.6-0.5c-0.2-0.1-0.4-0.3-0.7-0.4s-0.5-0.2-0.8-0.2c-0.3-0.1-0.6-0.1-0.9-0.1c-0.7,0-1.3,0.1-1.8,0.3
		c-0.6,0.2-1,0.5-1.4,0.9c-0.4,0.4-0.7,0.9-0.9,1.4c-0.2,0.5-0.3,1.1-0.3,1.8c0,0.6,0.1,1.2,0.3,1.8c0.2,0.5,0.5,1,0.8,1.4
		c0.4,0.4,0.8,0.7,1.3,0.9c0.5,0.2,1.1,0.3,1.8,0.3c0.7,0,1.3-0.1,1.9-0.3c0.5-0.2,1-0.6,1.3-1l-0.8-0.8c0,0-0.1-0.1-0.1-0.1
		c0,0-0.1,0-0.1,0c-0.1,0-0.1,0-0.2,0c-0.1,0-0.1,0.1-0.2,0.1c-0.1,0.1-0.2,0.2-0.4,0.3c-0.1,0.1-0.2,0.1-0.4,0.2
		c-0.1,0-0.3,0.1-0.4,0.1c-0.2,0-0.3,0-0.5,0c-0.3,0-0.6-0.1-0.9-0.2c-0.3-0.1-0.5-0.3-0.7-0.5s-0.4-0.5-0.5-0.9
		c-0.1-0.3-0.2-0.7-0.2-1.2c0-0.4,0.1-0.8,0.2-1.2C127.8,65.8,128,65.6,128.2,65.3z"/>
</g>
</svg>
