<?xml version="1.0" encoding="utf-8"?>
<!-- Generator: Adobe Illustrator 24.1.2, SVG Export Plug-In . SVG Version: 6.00 Build 0)  -->
<svg version="1.1" id="Capa_1" xmlns="http://www.w3.org/2000/svg" xmlns:xlink="http://www.w3.org/1999/xlink" x="0px" y="0px"
	 viewBox="0 0 234.1 74" style="enable-background:new 0 0 234.1 74;" xml:space="preserve">
<style type="text/css">
	.st0{font-family:'Quentin';}
	.st1{font-size:55.7672px;}
	.st2{fill:#999999;}
	.st3{font-family:'Lato-Black';}
	.st4{font-size:7.7073px;}
	.st5{letter-spacing:4;}
</style>
<g>
	<g>
		<g>
			<g>
				<text transform="matrix(1 0 0 1 19.3033 52.5181)" class="st0 st1">Chloe</text>
			</g>
		</g>
	</g>
	<g>
		<g>
			<path class="st2" d="M181.4,23.2c-1.4,1.1,0.9,6.4-0.5,4.8c-4.2-4.9,1,10.6-7,14c-9.3,19-26.7,9.9-34,20.1
				c0.1,0.5,0.7,0.8,1.2,0.6c5.3-7.6,15.1-3.4,22.3-6.9c7.8-2.8,9.3-14,17.8-14.6c2.5-0.6,4.9,2,6.8,2c0.8-3,6.3,4,7.6,6
				c2.9-0.8-3.3-7.2,2.9-2.6c4.4,3.8,14.6,7,11.6-0.8c1.4-2.1,4.9-0.7,5.4-3.8c0-1.3-1.7-2.2-0.9-3.6c-1.3-3.4-8.2-1.9-11.5-3.2
				c2.8-1.3,7.8-2.2,7.8-5.9c-1.7-2.7,0.6-6.5-1.8-8.6c-6.5-1.9-6.8-6.5-13.3,0.2c1.7-3.7,5.5-7.8,0.3-10.6
				c-1.8-0.9-1.4-4.8-4.1-2.6c-7.4-0.2,1.3-3.5-6-1.6C178.6,8.4,179.3,17.5,181.4,23.2z M194.6,22c-3.6,2-5.8,9.5-9.1,9.2
				c4.7-5.8,6.3-14.6,9.2-21.1c2.4,0.9-0.5,2.7,0.3,3.9c1.3,0.2,0.9-3.6,2.2-1.8c-0.3,0.8-2.5,4.4-0.9,3.9c0.9-0.9,0.8-2.3,1.5-3.2
				C199.1,16,194.9,18.8,194.6,22z M200.4,45.5c1.8-1.1-5.6-2.9-6.7-4.2c4.4,1.6,14.9,2.3,16,6.5c-1.4,0.8-6.2-2.7-5.9-0.6
				c0.5,0.5,6.3,1.2,5.6,2.4C203.8,51.5,185.4,37.3,200.4,45.5z M213.6,37.8c1.9,3.1-5.1,0.4-4,2.3c5.5-0.9,7.7,4.4,1.1,3.2
				c-1.1,0.1,0.3,1-0.2,1.5c-5.3,0.1-11.4-3.8-17.2-4.4c4.3-1.2,8.2,0.9,12.3,1.6c1.6-1.5-5.7-1.6-6.8-2.6c1.3-0.6,7.7,1.6,6.6-0.2
				c-2.8-1-6.3,0.3-8.8-1.3c11.2,0.2,6.2-2-1-0.6C198.1,33.5,208.7,37.6,213.6,37.8z M182.3,40.4c1.2-0.6,3.6-1.7,2.5,0.5
				C184,40.7,183.2,40.5,182.3,40.4z M182.3,38.9c0.5-0.5,3.4-1.5,2.9-0.1C184.4,38.3,182,40.1,182.3,38.9z M181.4,39.7
				c0.1,0.2,0,0.3-0.2,0.4C181.4,40,181.4,39.3,181.4,39.7z M182.6,37.7c1.4-0.3,2.4-2.9,2.5-0.5C184.6,37.3,182.6,37.8,182.6,37.7z
				 M173.6,43.9c-1.5,4.4-7,9.9-11.9,11.9c-12.3,2.6,1.7-0.2,5.5-4.2C169.7,49.3,171.7,46.6,173.6,43.9z M187.1,32.6
				c2-4.2,15.9-18.3,9.9-10.9c3.1-1.8,8.1-6.3,2.7-0.6c0.2,2,2.7-2.2,4-2.4c1.8,1.4,1.1,1.9-0.6,3c-0.5,1.9,2.2-0.7,2.8-1
				c2.5,0.3,4.9,1.2,1.4,2.7c-0.7,1.6,1.8-0.1,2.3-0.4c0.1,4-0.4,4.1-3.8,5.6c-0.9-0.3-0.7,1.7,0.2,1c9-4.7,2.2,5-4,5.3
				c-5.5,0.9-1.7-0.9,1.5-2.2c0.4-2.3-8,3.2-9.2,3.9c-9.4,0.7-4.3-2.6,1.5-3.4c0.9-2.1-5.1,0.6-6.3,1.1c0.7-0.4,8.9-8,13-9.2
				c-1.1-3.4-19.5,14.7-10,4.5C191.9,26.2,186.8,36.7,187.1,32.6z M176.5,41c-0.2,0.5-0.6,0.7-1.1,1C175.7,41.6,176.1,41.3,176.5,41
				z M183.9,34.8c1.6-0.4-1.3,2.3-2.3,2.6C182.2,36.7,183.4,35.4,183.9,34.8z M183.4,34.1c-0.4,0.8-1.7,2-2.2,2.5
				C181.1,35.5,183.6,31.6,183.4,34.1z M181.8,31.9c1.3,0.7-0.5,1.8-0.9,2.8C179.4,37.7,180.9,33,181.8,31.9z M181.1,31.4
				c-1,1.4-1.7,3.8-1.8,4.8C179,34.8,179.3,29.4,181.1,31.4z M183.9,25.3c0,0.3,0.1,1-0.2,1.2C183.9,26.1,183.9,25.7,183.9,25.3z
				 M191.1,10.2c1.3-2.2,4.1-3.7,2.5,0.3c-2.5,6.1-4.5,16.9-10.2,19.4c-0.1-1.5,2.9-2.2,2.1-4.1c0.4-1.9,5.3-8.5,3.2-8.6
				c-0.9,2.1-4.8,10.4-3.4,4.8C185.5,18.8,190.3,3.8,191.1,10.2z M184.9,19.9c-0.6-3.6,0.6-11.7,4.5-11.6
				C186.8,11.6,185.8,15.8,184.9,19.9z M185.3,7.4c-0.5,1-2.4,2.4-1.8,3.5c4.5-5.4,4.6-4.4,1.1,1.5c-1.5,2.4,0.3,6.4-1.4,7.9
				c-0.7-9.6-1.6-5.2-0.8,1.1c-1.7-0.6-2.8-6.4-1.2-8.9C181.6,10.6,184.7,6.4,185.3,7.4z"/>
			<path class="st2" d="M192.4,21.3c0.2,0.9-1.6,3.2-2.5,3.1C189.8,23.6,191.5,21.3,192.4,21.3z"/>
		</g>
	</g>
	<text transform="matrix(1 0 0 1 58.3841 67.5054)" class="st3 st4 st5">COSMETIC</text>
</g>
</svg>
